<?xml version="1.0" encoding="utf-8"?>
<!-- Generator: Adobe Illustrator 26.0.0, SVG Export Plug-In . SVG Version: 6.00 Build 0)  -->
<svg version="1.1"
	 id="svg8" xmlns:cc="http://creativecommons.org/ns#" xmlns:dc="http://purl.org/dc/elements/1.1/" xmlns:inkscape="http://www.inkscape.org/namespaces/inkscape" xmlns:rdf="http://www.w3.org/1999/02/22-rdf-syntax-ns#" xmlns:sodipodi="http://sodipodi.sourceforge.net/DTD/sodipodi-0.dtd" xmlns:svg="http://www.w3.org/2000/svg"
	 xmlns="http://www.w3.org/2000/svg" xmlns:xlink="http://www.w3.org/1999/xlink" x="0px" y="0px" viewBox="0 0 568.4 765.8"
	 style="enable-background:new 0 0 568.4 765.8;" xml:space="preserve">
<style type="text/css">
	.st0{fill:#00A8DF;}
</style>
<g id="layer1" transform="translate(0,-288.53332)">
	<path id="path929" class="st0" d="M283.6,298.6c-151.6,0-275,123.4-275,275c0,266.7,259.5,469.5,259.5,469.5c9.1,7.3,22,7.3,31.2,0
		c0,0,259.5-202.8,259.5-469.5C558.8,422,435.2,298.6,283.6,298.6z M283.6,448.6c68.7,0,125.1,56.2,125.1,125
		c0,68.7-56.4,125.1-125.1,125.1s-125-56.4-125-125.1C158.7,504.8,214.9,448.6,283.6,448.6z"/>
</g>
</svg>
