<svg xmlns="http://www.w3.org/2000/svg" viewBox="0 0 616.72 683.33"><defs><style>.cls-1{fill:#04a7df;fill-rule:evenodd;}</style></defs><g id="Layer_2" data-name="Layer 2"><g id="Layer_1-2" data-name="Layer 1"><path class="cls-1" d="M369.17,50h-155a125.15,125.15,0,0,1-97.5,97.49v21.67a125.15,125.15,0,0,1,97.5,97.49h155a125.14,125.14,0,0,1,97.49-97.49q0-5.21,0-10.84t0-10.83A125.14,125.14,0,0,1,369.17,50ZM389.32.11C380.17,0,370.42,0,360.07,0H223.27c-10.35,0-20.1,0-29.25.11C193.24,0,192.46,0,191.67,0a24.19,24.19,0,0,0-3.09.19c-15.09.27-28.46.91-40.06,2.47-20.93,2.82-39.82,9-55,24.19s-21.37,34.07-24.19,55c-1.56,11.6-2.2,25-2.47,40.06a24.19,24.19,0,0,0-.19,3.09c0,.79,0,1.58.11,2.35-.11,9.15-.11,18.9-.11,29.25v3.47c0,10.34,0,20.1.11,29.25-.07.77-.11,1.55-.11,2.35a24.41,24.41,0,0,0,.19,3.09c.27,15.09.91,28.45,2.47,40.06,2.82,20.92,9,39.82,24.19,55s34.07,21.37,55,24.18c11.6,1.56,25,2.21,40.06,2.48a26.16,26.16,0,0,0,3.09.19c.79,0,1.57,0,2.35-.11,9.15.11,18.9.11,29.25.11h136.8c10.35,0,20.1,0,29.25-.11.77.07,1.56.11,2.35.11a26.16,26.16,0,0,0,3.09-.19c15.09-.27,28.46-.92,40.06-2.48,20.92-2.81,39.82-9,55-24.18s21.37-34.08,24.18-55c1.56-11.61,2.21-25,2.48-40.06a26.42,26.42,0,0,0,.19-3.09c0-.8,0-1.58-.11-2.35.11-9.15.11-18.91.11-29.25V156.6c0-10.35,0-20.1-.11-29.25.07-.77.11-1.56.11-2.35a26.16,26.16,0,0,0-.19-3.09c-.27-15.09-.92-28.46-2.48-40.06-2.81-20.93-9-39.82-24.18-55s-34.08-21.37-55-24.19c-11.6-1.56-25-2.2-40.06-2.47A24.19,24.19,0,0,0,391.67,0C390.88,0,390.09,0,389.32.11Zm32.15,51.36A75.27,75.27,0,0,0,465.2,95.2q-.31-3.49-.75-6.69c-2.07-15.38-5.64-22-10-26.31s-10.92-7.91-26.3-10Q425,51.79,421.47,51.47Zm43.73,170a75.24,75.24,0,0,0-43.73,43.73c2.33-.22,4.56-.46,6.69-.75,15.38-2.07,22-5.64,26.3-10s7.92-10.92,10-26.31Q464.89,225,465.2,221.47ZM161.87,265.2a75.23,75.23,0,0,0-43.74-43.73q.33,3.5.76,6.68c2.06,15.39,5.64,22,10,26.31s10.93,7.92,26.31,10C157.31,264.74,159.53,265,161.87,265.2Zm-43.74-170a75.26,75.26,0,0,0,43.74-43.73c-2.34.21-4.56.46-6.69.75-15.38,2.07-22,5.64-26.31,10s-7.92,10.93-10,26.31Q118.45,91.71,118.13,95.2ZM291.67,150a8.34,8.34,0,1,0,8.33,8.33A8.33,8.33,0,0,0,291.67,150Zm-58.33,8.33a58.33,58.33,0,1,1,58.33,58.34A58.33,58.33,0,0,1,233.34,158.33ZM181.13,406.61c62.2-12.05,128.77-9.35,182.65,22.78a88.67,88.67,0,0,1,20.85,17.09,75.73,75.73,0,0,1,19.3,49.1c6.38-4.11,12.76-8.68,19.25-13.58l60.24-45.51c30.15-22.77,74-22.78,104.13,0,27.87,21,39,58.8,19,90.78-14.18,22.72-35.53,54.16-57.26,74.28-22,20.34-53.22,37.45-76.87,48.86-28.71,13.86-59.73,21.52-89.89,26.4a519.84,519.84,0,0,1-186.72-4.1A475.93,475.93,0,0,0,100.33,663H25a25,25,0,0,1,0-50h75.33a525.67,525.67,0,0,1,105.59,10.78,470.26,470.26,0,0,0,168.65,3.72C402.2,623,428,616.33,450.72,605.37s48.39-25.48,64.63-40.51c16.41-15.21,34.79-41.6,48.81-64.07,4.23-6.78,3.64-16.57-6.74-24.4-12.32-9.31-31.54-9.31-43.86,0L453.32,521.9c-24.05,18.16-53.65,37.6-90.36,43.45q-5.56.89-11.57,1.61a42,42,0,0,1-5.95.65,334.09,334.09,0,0,1-64.4,0,25,25,0,1,1,4.7-49.77,284.91,284.91,0,0,0,55.6-.1l1-.1a21,21,0,0,0,3-2.25c10.65-9.3,11.6-24.86,2-35.69a38.17,38.17,0,0,0-9.12-7.4c-39.37-23.48-92-27.4-147.52-16.64C135.39,466.4,80.5,491.06,39.46,520.16a25,25,0,0,1-28.92-40.79C57.15,446.32,118.62,418.72,181.13,406.61Z"/></g></g></svg>