<?xml version="1.0" encoding="utf-8"?>
<!-- Generator: Adobe Illustrator 26.0.0, SVG Export Plug-In . SVG Version: 6.00 Build 0)  -->
<svg version="1.1" id="Layer_1" xmlns="http://www.w3.org/2000/svg" xmlns:xlink="http://www.w3.org/1999/xlink" x="0px" y="0px"
	 viewBox="0 0 800 800" style="enable-background:new 0 0 800 800;" xml:space="preserve">
<style type="text/css">
	.st0{fill:none;stroke:#00A8DF;stroke-width:50;stroke-miterlimit:133.3333;}
	.st1{fill:none;stroke:#00A8DF;stroke-width:50;stroke-linecap:round;stroke-linejoin:round;stroke-miterlimit:133.3333;}
	.st2{fill:none;stroke:#A25CFF;stroke-width:50;stroke-linecap:round;stroke-linejoin:round;stroke-miterlimit:133.3333;}
	.st3{fill:none;stroke:#00A8DF;stroke-width:50;stroke-linecap:round;stroke-miterlimit:133.3333;}
</style>
<path class="st0" d="M133.3,333.3c0-125.7,0-188.6,39.1-227.6C211.4,66.7,274.3,66.7,400,66.7c125.7,0,188.6,0,227.6,39.1
	c39.1,39.1,39.1,101.9,39.1,227.6V400c0,125.7,0,188.6-39.1,227.6c-39,39.1-101.9,39.1-227.6,39.1c-125.7,0-188.6,0-227.6-39.1
	c-39.1-39-39.1-101.9-39.1-227.6V333.3z"/>
<path class="st1" d="M133.3,433.3h533.3"/>
<path class="st2" d="M516.7,533.3h50"/>
<path class="st2" d="M233.3,533.3h50"/>
<path class="st1" d="M200,650v50c0,18.4,14.9,33.3,33.3,33.3h50c18.4,0,33.3-14.9,33.3-33.3v-33.3"/>
<path class="st1" d="M600,650v50c0,18.4-14.9,33.3-33.3,33.3h-50c-18.4,0-33.3-14.9-33.3-33.3v-33.3"/>
<path class="st1" d="M666.7,300H700c18.4,0,33.3,14.9,33.3,33.3v33.3c0,10.5-4.9,20.4-13.3,26.7l-53.3,40"/>
<path class="st1" d="M133.3,300H100c-18.4,0-33.3,14.9-33.3,33.3v33.3c0,10.5,4.9,20.4,13.3,26.7l53.3,40"/>
<path class="st3" d="M650,166.7H150"/>
</svg>
