<?xml version="1.0" encoding="utf-8"?>
<!-- Generator: Adobe Illustrator 26.0.0, SVG Export Plug-In . SVG Version: 6.00 Build 0)  -->
<svg version="1.1" id="Layer_1" xmlns="http://www.w3.org/2000/svg" xmlns:xlink="http://www.w3.org/1999/xlink" x="0px" y="0px"
	 viewBox="0 0 800 800" style="enable-background:new 0 0 800 800;" xml:space="preserve">
<style type="text/css">
	.st0{fill:none;stroke:#A25CFF;stroke-width:66.6667;stroke-linecap:round;stroke-linejoin:round;stroke-miterlimit:133.3333;}
	.st1{fill:none;stroke:#00A8DF;stroke-width:66.6667;stroke-linecap:round;stroke-linejoin:round;stroke-miterlimit:133.3333;}
</style>
<line class="st0" x1="500" y1="233.3" x2="500" y2="700"/>
<line class="st0" x1="600" y1="366.7" x2="600.3" y2="366.7"/>
<line class="st0" x1="600" y1="466.7" x2="600.3" y2="466.7"/>
<line class="st0" x1="600" y1="566.7" x2="600.3" y2="566.7"/>
<polyline class="st0" points="566.7,100 400,233.3 233.3,100 "/>
<path class="st1" d="M260,700h280c56,0,84,0,105.4-10.9c18.8-9.6,34.1-24.9,43.7-43.7C700,624,700,596,700,540V393.3
	c0-56,0-84-10.9-105.4c-9.6-18.8-24.9-34.1-43.7-43.7C624,233.3,596,233.3,540,233.3H260c-56,0-84,0-105.4,10.9
	c-18.8,9.6-34.1,24.9-43.7,43.7C100,309.3,100,337.3,100,393.3V540c0,56,0,84,10.9,105.4c9.6,18.8,24.9,34.1,43.7,43.7
	C176,700,204,700,260,700z"/>
</svg>
