<svg xmlns="http://www.w3.org/2000/svg" viewBox="0 0 717 800"><defs><style>.cls-1{fill:#04a7df;}</style></defs><g id="Layer_2" data-name="Layer 2"><g id="_2" data-name="2"><path class="cls-1" d="M386.91,58.38a58.39,58.39,0,1,0-58.37,58.38A58.38,58.38,0,0,0,386.91,58.38Z"/><polygon class="cls-1" points="176.94 758.37 39.38 758.38 39.38 800 218.55 800 218.55 697.87 358.78 697.87 358.78 595.76 498.96 595.76 498.96 493.63 639.19 493.63 639.19 391.5 717 391.5 717 349.87 597.57 349.87 597.57 452 457.35 452 457.35 554.13 317.17 554.13 317.17 656.24 176.94 656.24 176.94 758.37"/><path class="cls-1" d="M.14,359.74a12.13,12.13,0,0,0,10.19,13.81l118.91,17.89a12.16,12.16,0,0,0,13.81-10.21l11.5-76.54a12.12,12.12,0,0,0-10.19-13.82l-28-4.21,2.39-16a11.66,11.66,0,0,0-3.44-9.93L158.2,211l58.65-8.66L194.09,330.79l-2.83,14.38a52.44,52.44,0,0,0,52.66,62.55l110.66-2.57-8.36,91a26.75,26.75,0,0,0,22.68,28.9l1.06.16a26.77,26.77,0,0,0,30.24-21.36l24.67-127a41.29,41.29,0,0,0-40.69-49.16l-73.34.38,22.06-89,46.53,25.06a37.3,37.3,0,0,0,32.32-2.87l78.56-46.87a21.78,21.78,0,0,0,7.45-30l-.83-1.36a21.76,21.76,0,0,0-29.24-7.69l-65.91,30.94-45.13-28.42L300.2,225.7,285,133.05a85.15,85.15,0,0,0-77.22-2.84l-73.26,34.16a35.48,35.48,0,0,0-18.83,14.83L75.19,243.9a20.55,20.55,0,0,0-2.89,7.85l-2.93-.44a11.88,11.88,0,0,0-13.49,10l-2.4,15.93-28-4.21a12.13,12.13,0,0,0-13.81,10.2ZM290.08,270.5a7.23,7.23,0,1,1,7.23-7.22A7.22,7.22,0,0,1,290.08,270.5Zm-14.92,33.24a7.23,7.23,0,1,1,7.22,7.23A7.22,7.22,0,0,1,275.16,303.74ZM105.05,285,64.77,278.9,67.16,263l.5-.36,6.41,1a20.47,20.47,0,0,0,7.54,8.57l.48.3a20.45,20.45,0,0,0,25.24-2.68Z"/><path class="cls-1" d="M212.7,525.55a123.66,123.66,0,0,0,20.12-29.64l22.55-73.3-10.28.24A75.41,75.41,0,0,1,187.29,396c-1.49-1.77-2.83-3.64-4.14-5.52l-19.29,93.94-60.47,81.15A26.37,26.37,0,0,0,106,602l.76.66a26.34,26.34,0,0,0,36.62-1.39Z"/><polygon class="cls-1" points="338.55 168.37 314.11 153.24 304.05 174.72 311.76 195.35 330.4 185.78 338.55 168.37"/></g></g></svg>