<?xml version="1.0" encoding="utf-8"?>
<!-- Generator: Adobe Illustrator 26.0.0, SVG Export Plug-In . SVG Version: 6.00 Build 0)  -->
<svg version="1.1" id="Layer_1" xmlns="http://www.w3.org/2000/svg" xmlns:xlink="http://www.w3.org/1999/xlink" x="0px" y="0px"
	 viewBox="0 0 800 800" style="enable-background:new 0 0 800 800;" xml:space="preserve">
<style type="text/css">
	.st0{fill-rule:evenodd;clip-rule:evenodd;fill:#001330;}
	.st1{fill-rule:evenodd;clip-rule:evenodd;fill:#00A8DF;}
</style>
<path class="st0" d="M400,9.1L400,9.1c215.9,0,390.9,175,390.9,390.9v0c0,215.9-175,390.9-390.9,390.9h0
	C184.1,790.9,9.1,615.9,9.1,400v0C9.1,184.1,184.1,9.1,400,9.1z"/>
<path class="st1" d="M400,122.1l-78.5,71.2l-105.8-4.1l-14.3,104.9l-83.7,64.8l56.4,89.5l-22.4,103.5l100.8,32.3l49.4,93.7l98-40.1
	l98,40.1l49.4-93.7l100.8-32.3l-22.4-103.5l56.4-89.5l-83.7-64.8l-14.3-104.9l-105.8,4.1L400,122.1z M503.7,303.3l43.5,45.2
	L370.8,518.2L252.4,399.8l44.3-44.3l74.9,74.9L503.7,303.3L503.7,303.3z"/>
</svg>
