<svg xmlns="http://www.w3.org/2000/svg" viewBox="0 0 650.75 584.61"><defs><style>.cls-1{fill:#04a7df;}</style></defs><g id="Layer_2" data-name="Layer 2"><g id="Layer_1-2" data-name="Layer 1"><path class="cls-1" d="M571.64,445.31a111.22,111.22,0,0,1,3.13,14.46l2.1,16.09,16-2.73c1.72-.32,42.11-7.74,55.63-61.49,11-43.67-21.49-76.87-35.79-89a266.28,266.28,0,0,0-4.06-33.44A227.35,227.35,0,0,0,179.22,141.88a161.16,161.16,0,0,0-22.11-1.57C70.47,140.31,0,210.78,0,297.42S70.47,454.53,157.11,454.53H378.2c15.32,15.31,31.49,18.36,32.58,18.52l15.94,2.65,2.11-16a86.76,86.76,0,0,1,1.64-8.75c.47-2,.94-3.91,1.48-5.71,1.25,1.57,2.58,3.13,3.83,4.69,8.2,10,16.72,19.69,21.56,23.28l4.14,3.05h80.71l4.14-3.05c5.47-4.06,16-16.48,25.31-27.89ZM355,411.64a118,118,0,0,0,3.59,11.72H157A125.86,125.86,0,1,1,258.44,223.05a15.65,15.65,0,1,0,25.23-18.52,156.37,156.37,0,0,0-73.83-55,195.9,195.9,0,0,1,180-118.28c107,0,194.22,86.17,196,192.73a193.31,193.31,0,0,0-26.25-37.42C534.22,158.2,509,147.19,508,146.72l-6.17-2.66-6.18,2.66c-1.09.47-26.32,11.48-51.64,39.84-22.26,24.85-49.14,68.44-53.12,136.17C376.48,334.77,344,368,355,411.64Zm175.78,33.44H472.66c-.24-.31-.55-.55-.79-.86-.07-.08-.15-.16-.15-.24-.31-.31-.55-.62-.86-.93-6.88-7.66-18.36-21.8-27.81-34.14l-7.5-9.77-11.25,5a10.44,10.44,0,0,0-1.57.78l-.46.24-1.18.7a1.77,1.77,0,0,0-.46.31l-1.41.94c-.16.16-.31.23-.47.39l-.94.7c-.23.16-.39.39-.62.55a7.83,7.83,0,0,1-.78.7c-.39.39-.78.71-1.1,1.1l-.62.62c-.24.31-.55.55-.78.86a1.8,1.8,0,0,0-.39.47c-.32.31-.55.7-.86,1l-.08.07-1.88,2.58-.07.08-.94,1.41-.08.07a40.39,40.39,0,0,0-2.58,4.85c-.39.86-.78,1.72-1.25,2.65,0,.08-.08.08-.08.16-.23.47-.39.94-.62,1.41a13.16,13.16,0,0,0-.63,1.64c-.15.31-.23.62-.39,1-.23.71-.54,1.41-.78,2.11a1.42,1.42,0,0,0-.15.55c-.32.86-.55,1.72-.86,2.66-.39-.32-.79-.71-1.18-1.1l-1-1-.16-.16a52.3,52.3,0,0,1-9.22-13.12c-.31-.71-.7-1.41-1-2.11,0-.08-.08-.08-.08-.16l-.94-2.11c0-.08-.08-.16-.08-.23-.31-.71-.54-1.41-.78-2.11-.08-.16-.08-.24-.15-.39l-.71-2.11a1.27,1.27,0,0,1-.15-.55,21.1,21.1,0,0,1-.63-2.11,1.76,1.76,0,0,1-.15-.62c-.24-.94-.55-1.88-.79-2.9-8.35-33.28,29.38-60.46,29.69-60.7l6.41-4.45.23-7.81c1.64-49.61,16.57-90.79,44.46-122.5a149.27,149.27,0,0,1,35.62-29.85,149.27,149.27,0,0,1,35.63,29.85c1.09,1.25,2.11,2.5,3.12,3.75l.86,1.09c.78,1,1.56,1.95,2.34,3l.71.94c1,1.25,2,2.57,2.89,3.9a3.76,3.76,0,0,0,.54.7c.79,1.1,1.57,2.19,2.35,3.36a5.45,5.45,0,0,0,.78,1.1c.78,1.17,1.56,2.42,2.34,3.67.08.16.24.31.32.47l2.57,4.22c.16.31.39.62.55.93.7,1.18,1.33,2.35,2,3.52.16.31.39.7.55,1,.78,1.48,1.56,3,2.34,4.53s1.49,3,2.11,4.53c.16.31.32.7.47,1,.63,1.33,1.17,2.66,1.8,4.07a1.64,1.64,0,0,0,.31.62c.71,1.56,1.33,3.2,2,4.85.07.23.15.39.23.62.55,1.41,1.09,2.89,1.56,4.3.08.31.24.62.31.93,1.18,3.29,2.19,6.72,3.21,10.08.08.32.15.55.23.86.39,1.49.86,3.05,1.25,4.53.08.24.16.55.24.78.86,3.36,1.64,6.8,2.26,10.24.08.31.16.7.24,1l.7,4,.23,1.17c.24,1.41.47,2.74.63,4.14.08.31.08.55.16.86l.7,5.16c.23,1.64.39,3.36.55,5,.07.47.07.93.15,1.48.08,1.25.24,2.42.31,3.67.08.55.08,1.18.16,1.72.08,1.25.16,2.42.23,3.67,0,.55.08,1,.08,1.57.08,1.72.16,3.51.24,5.23l.23,7.81,4.3,3,2.11,1.49c.39.23,38.12,27.42,29.76,60.78-4,15.7-10.86,25.08-17.11,30.62-5-16.25-12.18-26.25-21.79-30.54l-11.25-5-7.5,9.76c-10.39,13.75-23.28,29.53-29.77,36.41Z"/><path class="cls-1" d="M499.92,242.34a44.15,44.15,0,1,0,44.14,44.14A44.2,44.2,0,0,0,499.92,242.34Zm0,72.74a28.52,28.52,0,1,1,28.52-28.52A28.57,28.57,0,0,1,499.92,315.08Zm-20.7,176.25a7.83,7.83,0,0,0-7.81,7.81V576.8a7.81,7.81,0,0,0,15.62,0V499.14A7.83,7.83,0,0,0,479.22,491.33Z"/><path class="cls-1" d="M523.29,483.24a15.67,15.67,0,0,0-15.63,15.62v22.5a15.63,15.63,0,1,0,31.25,0v-22.5A15.62,15.62,0,0,0,523.29,483.24ZM451.18,94.33A7.85,7.85,0,0,0,447,84.1C385.86,58.86,341,71.91,314.15,87.3,285,104,270.55,126.68,269.93,127.61a7.89,7.89,0,0,0,2.42,10.78,8,8,0,0,0,4.14,1.18,7.9,7.9,0,0,0,6.64-3.68c.16-.23,13-20.31,38.75-35.07C356.49,81,396.57,80.19,440.94,98.47a7.68,7.68,0,0,0,10.24-4.14Z"/></g></g></svg>