<?xml version="1.0" encoding="utf-8"?>
<!-- Generator: Adobe Illustrator 26.0.0, SVG Export Plug-In . SVG Version: 6.00 Build 0)  -->
<svg version="1.1" id="Layer_1" xmlns="http://www.w3.org/2000/svg" xmlns:xlink="http://www.w3.org/1999/xlink" x="0px" y="0px"
	 viewBox="0 0 800 800" style="enable-background:new 0 0 800 800;" xml:space="preserve">
<style type="text/css">
	.st0{fill:none;stroke:#A25CFF;stroke-width:50;stroke-linejoin:round;stroke-miterlimit:133.3333;}
	.st1{fill:none;stroke:#00A8DF;stroke-width:50;stroke-linecap:round;stroke-linejoin:round;stroke-miterlimit:133.3333;}
</style>
<path class="st0" d="M533.3,209.3c0,20-7.9,39.3-22.1,53.5c-32.5,32.8-64.1,67-97.9,98.6c-7.7,7.1-20,6.9-27.4-0.6l-97.3-98
	c-29.4-29.6-29.4-77.5,0-107.1c29.7-29.9,78.1-29.9,107.7,0l3.5,3.6l3.5-3.6c14.2-14.4,33.6-22.4,53.9-22.4
	c20.3,0,39.6,8.1,53.9,22.4C525.4,170,533.3,189.3,533.3,209.3z"/>
<path class="st1" d="M600,666.7l127.5-127.5c3.7-3.7,5.9-8.8,5.9-14.1V350c0-27.6-22.4-50-50-50l0,0c-27.6,0-50,22.4-50,50v150"/>
<path class="st1" d="M600,533.3l28.6-28.6c3-3,4.7-7.1,4.7-11.4l0,0c0-6.1-3.5-11.7-8.9-14.4l-14.8-7.4c-25.7-12.8-56.7-7.8-77,12.5
	l-29.8,29.8c-12.5,12.5-19.5,29.5-19.5,47.1v105.7"/>
<path class="st1" d="M200,666.7L72.5,539.2c-3.8-3.7-5.9-8.8-5.9-14.1V350c0-27.6,22.4-50,50-50l0,0c27.6,0,50,22.4,50,50v150"/>
<path class="st1" d="M200,533.3l-28.6-28.6c-3-3-4.7-7.1-4.7-11.4l0,0c0-6.1,3.5-11.7,8.9-14.4l14.8-7.4c25.7-12.8,56.7-7.8,77,12.5
	l29.8,29.8c12.5,12.5,19.5,29.5,19.5,47.1v105.7"/>
</svg>
