<?xml version="1.0" encoding="utf-8"?>
<!-- Generator: Adobe Illustrator 26.0.0, SVG Export Plug-In . SVG Version: 6.00 Build 0)  -->
<svg version="1.1"
	 id="GUIDE" xmlns:cc="http://creativecommons.org/ns#" xmlns:dc="http://purl.org/dc/elements/1.1/" xmlns:inkscape="http://www.inkscape.org/namespaces/inkscape" xmlns:rdf="http://www.w3.org/1999/02/22-rdf-syntax-ns#" xmlns:sodipodi="http://sodipodi.sourceforge.net/DTD/sodipodi-0.dtd" xmlns:svg="http://www.w3.org/2000/svg"
	 xmlns="http://www.w3.org/2000/svg" xmlns:xlink="http://www.w3.org/1999/xlink" x="0px" y="0px" viewBox="0 0 800 800"
	 style="enable-background:new 0 0 800 800;" xml:space="preserve">
<style type="text/css">
	.st0{fill:#A25CFF;}
	.st1{fill:#00A8DF;}
</style>
<g>
	<path class="st0" d="M573.2,268.5l6.1,2.6c2.6,1.1,5.3,1.6,7.9,1.6c7.8,0,15.1-4.5,18.4-12.1c4.4-10.1-0.3-21.9-10.5-26.3l-6.1-2.6
		c-10.1-4.4-21.9,0.3-26.3,10.5C558.4,252.4,563.1,264.1,573.2,268.5z"/>
	<path class="st1" d="M748.9,428.9V313.7c0-11-9-20-20-20H386.2c-11,0-20,9-20,20s9,20,20,20h245.6L386.2,439.3L94.1,313.7
		l292.1-125.6l131.1,56.4c10.1,4.4,21.9-0.3,26.3-10.5c4.4-10.1-0.3-21.9-10.5-26.3l-139-59.8c-5-2.2-10.8-2.2-15.8,0L35.5,295.3
		c-7.3,3.2-12.1,10.4-12.1,18.4s4.8,15.2,12.1,18.4l342.7,147.4c2.5,1.1,5.2,1.6,7.9,1.6s5.4-0.5,7.9-1.6l188.6-81.1l0,138.4
		c-110.1,101.8-283,101.8-393.1,0l0-35.3c0-11-9-20-20-20l0,0c-11,0-20,9-20,20l0,43.9c0,5.4,2.2,10.5,6,14.3
		c61.9,60.7,143.8,94.1,230.5,94.1c86.7,0,168.6-33.4,230.5-94.1c3.8-3.8,6-8.9,6-14.3l0-164.2l86.2-37.1v84.8
		c-16.3,7.6-27.6,24.1-27.6,43.2c0,19.6,14.6,71.2,47.6,71.2c33,0,47.6-51.6,47.6-71.2C776.6,452.9,765.2,436.4,748.9,428.9z
		 M728.9,497.9c-3.9-7.6-7.6-19.4-7.6-25.8c0-4.2,3.4-7.6,7.6-7.6s7.6,3.4,7.6,7.6C736.6,478.5,732.8,490.3,728.9,497.9z"/>
	<path class="st0" d="M169.6,460.6c11,0,20-9,20-20v-6.7c0-11-9-20-20-20s-20,9-20,20v6.7C149.6,451.6,158.6,460.6,169.6,460.6z"/>
</g>
</svg>
