<?xml version="1.0" encoding="utf-8"?>
<!-- Generator: Adobe Illustrator 26.0.0, SVG Export Plug-In . SVG Version: 6.00 Build 0)  -->
<svg version="1.1" id="Layer_1" xmlns="http://www.w3.org/2000/svg" xmlns:xlink="http://www.w3.org/1999/xlink" x="0px" y="0px"
	 viewBox="0 0 800 800" style="enable-background:new 0 0 800 800;" xml:space="preserve">
<style type="text/css">
	.st0{fill:#00A8DF;}
	.st1{fill:#A25CFF;}
</style>
<g>
	<g>
		<g>
			<path class="st0" d="M489.4,608.6H310.6c-17.9,0-29.8-11.9-29.8-29.8v-14.9c0-41.7-17.9-83.4-50.7-116.2
				c-47.7-47.7-71.5-110.3-68.5-175.8c6-125.1,110.3-226.5,235.4-229.4h3c131.1,0,238.4,107.3,238.4,238.4
				c0,62.6-23.8,125.1-71.5,169.8c-32.8,29.8-47.7,71.5-47.7,113.2v14.9C519.2,596.7,507.3,608.6,489.4,608.6z M340.4,549h119.2
				c3-53.6,26.8-101.3,65.6-143c35.8-32.8,53.6-77.5,53.6-125.1c0-98.3-80.5-178.8-178.8-178.8h-3c-92.4,3-172.8,77.5-175.8,172.8
				c-3,47.7,17.9,95.4,50.7,131.1C313.6,447.7,337.4,498.3,340.4,549z"/>
		</g>
	</g>
	<g>
		<g>
			<path class="st1" d="M400,757.6L400,757.6c-65.6,0-119.2-53.6-119.2-119.2v-59.6c0-17.9,11.9-29.8,29.8-29.8h178.8
				c17.9,0,29.8,11.9,29.8,29.8v59.6C519.2,703.9,465.5,757.6,400,757.6z M340.4,608.6v29.8c0,32.8,26.8,59.6,59.6,59.6l0,0
				c32.8,0,59.6-26.8,59.6-59.6v-29.8H340.4z"/>
		</g>
	</g>
	<g>
		<g>
			<path class="st1" d="M304.3,279c-19.1,0-31.9-12.8-31.9-31.9c0-70.2,57.4-127.6,127.6-127.6c19.1,0,31.9,12.8,31.9,31.9
				s-12.8,31.9-31.9,31.9c-35.1,0-63.8,28.7-63.8,63.8C336.2,266.2,323.4,279,304.3,279z"/>
		</g>
	</g>
</g>
</svg>
