<svg xmlns="http://www.w3.org/2000/svg" viewBox="0 0 800 765.53"><defs><style>.cls-1{fill:#04a7df;}</style></defs><g id="Layer_2" data-name="Layer 2"><g id="_2" data-name="2"><path class="cls-1" d="M360.6,382.76c0-99.56-80.74-180.27-180.33-180.27A180.27,180.27,0,0,0,0,382.76c0,99.59,80.71,180.3,180.27,180.3S360.6,482.35,360.6,382.76ZM252,368H202.59l-5.32,8.25V396H252v28.07H197.27v42.34h-34V424.07H108.64V396H163.3V376.27L158,368H108.64V344h33.94l-28.86-44.92h28.76l37.79,58.79,37.82-58.79h28.79L218,344H252Z"/><path class="cls-1" d="M243.65,172.93a249.3,249.3,0,0,1,154.54-53.35c.74,0,1.47,0,2.2,0l-18.82,56.88L568.8,130.76,440,0,417,69.48c-6.22-.39-12.5-.63-18.8-.63a300.66,300.66,0,0,0-213.13,88.28c-1.95,2-3.81,4-5.66,6,.29,0,.58-.05.87-.05A206.41,206.41,0,0,1,243.65,172.93Z"/><path class="cls-1" d="M556.35,592.63A249.78,249.78,0,0,1,401.81,646c-.74,0-1.47-.1-2.2-.1L418.43,589,231.2,634.77,360,765.53l23-69.48c6.22.39,12.5.63,18.8.63A300.66,300.66,0,0,0,614.94,608.4c1.95-1.93,3.81-4,5.66-5.91h-.87A207.61,207.61,0,0,1,556.35,592.63Z"/><path class="cls-1" d="M619.73,202.49c-99.56,0-180.33,80.71-180.33,180.27s80.77,180.3,180.33,180.3S800,482.35,800,382.76A180.27,180.27,0,0,0,619.73,202.49Zm0,315.48c-74.56,0-135.23-60.65-135.23-135.21s60.67-135.2,135.23-135.2,135.2,60.64,135.2,135.2S694.29,518,619.73,518Z"/><path class="cls-1" d="M625.61,322.61h-38.4a11.11,11.11,0,0,0-11.09,11.08V446.88a11.09,11.09,0,0,0,11.09,11.06h5.59a11.05,11.05,0,0,0,11.06-11.06V415h21.75c29.08,0,52.71-20.7,52.71-46.19S654.69,322.61,625.61,322.61Zm0,68.06H603.86V346.92h21.75c13.77,0,24.95,9.82,24.95,21.88S639.38,390.67,625.61,390.67Z"/></g></g></svg>