<svg id="Layer_1" data-name="Layer 1" xmlns="http://www.w3.org/2000/svg" xmlns:xlink="http://www.w3.org/1999/xlink" viewBox="0 0 110 110"><defs><style>.cls-1{fill:none;stroke-miterlimit:10;stroke-width:2.5px;stroke:url(#linear-gradient);}.cls-2{fill:url(#linear-gradient-2);}</style><linearGradient id="linear-gradient" x1="55.43" y1="-0.92" x2="55.43" y2="107.08" gradientTransform="matrix(1, 0, 0, -1, 0, 107.89)" gradientUnits="userSpaceOnUse"><stop offset="0" stop-color="#7d47d6"/><stop offset="0.24" stop-color="#0084d6"/><stop offset="0.49" stop-color="#0084d6"/><stop offset="0.79" stop-color="#00e4e7"/><stop offset="1" stop-color="#d7ffff"/></linearGradient><linearGradient id="linear-gradient-2" x1="55.37" y1="24.22" x2="55.37" y2="81.93" xlink:href="#linear-gradient"/></defs><path class="cls-1" d="M76.32,3H34.44A30.9,30.9,0,0,0,3.5,33.92V75.71A30.9,30.9,0,0,0,34.44,106.6H76.32a30.91,30.91,0,0,0,28.67-19,30.81,30.81,0,0,0,2.36-11.84V33.92A30.94,30.94,0,0,0,76.32,3Z"/><path class="cls-2" d="M68.3,35.91s-9.58.37-9.58,7.06V49.3H65.4V58H58.72V83.67H49.14V58H42.45V49.3h6.69V40.62C49.14,30,56.55,26,68.3,26Z"/></svg>