<?xml version="1.0" encoding="utf-8"?>
<!-- Generator: Adobe Illustrator 26.0.0, SVG Export Plug-In . SVG Version: 6.00 Build 0)  -->
<svg version="1.1" id="Layer_1" xmlns="http://www.w3.org/2000/svg" xmlns:xlink="http://www.w3.org/1999/xlink" x="0px" y="0px"
	 viewBox="0 0 800 800" style="enable-background:new 0 0 800 800;" xml:space="preserve">
<style type="text/css">
	.st0{fill-rule:evenodd;clip-rule:evenodd;fill:#00A8DF;}
	.st1{fill:#00A8DF;}
	.st2{fill-rule:evenodd;clip-rule:evenodd;fill:#A25CFF;}
	.st3{fill:none;}
</style>
<g>
	<path class="st0" d="M617.9,125.8c0-28.8-23.4-52.2-52.2-52.2H147.8c-28.8,0-52.2,23.4-52.2,52.2v522.3c0,28.8,23.4,52.2,52.2,52.2
		h208.9v-52.2H147.8V125.8h417.9v156.7h52.2V125.8z"/>
	<rect x="200.1" y="439.2" class="st1" width="156.7" height="52.2"/>
	<rect x="200.1" y="334.7" class="st1" width="313.4" height="52.2"/>
	<path class="st0" d="M513.5,230.2v52.2H200.1v-52.2H513.5z"/>
	<path class="st2" d="M591.8,569.8L722.4,622v-52.2l-130.6-65.3v-65.3c0-14.4-11.7-26.1-26.1-26.1c-14.4,0-26.1,11.7-26.1,26.1v65.3
		L409,569.8V622l130.6-52.2v91.4l-52.2,39.2v26.1l78.4-26.1l78.4,26.1v-26.1l-52.2-39.2V569.8z"/>
</g>
<rect id="_Transparent_Rectangle_" class="st3" width="800" height="800"/>
</svg>
