<svg id="Layer_1" data-name="Layer 1" xmlns="http://www.w3.org/2000/svg" xmlns:xlink="http://www.w3.org/1999/xlink" viewBox="0 0 108.23 109.89"><defs><style>.cls-1{fill:none;stroke-miterlimit:10;stroke-width:2.5px;stroke:url(#linear-gradient);}.cls-2{fill:url(#linear-gradient-2);}</style><linearGradient id="linear-gradient" x1="54.34" y1="-1.92" x2="54.34" y2="106.08" gradientTransform="matrix(1, 0, 0, -1, 0, 107.89)" gradientUnits="userSpaceOnUse"><stop offset="0" stop-color="#7d47d6"/><stop offset="0.24" stop-color="#0084d6"/><stop offset="0.49" stop-color="#0084d6"/><stop offset="0.79" stop-color="#00e4e7"/><stop offset="1" stop-color="#d7ffff"/></linearGradient><linearGradient id="linear-gradient-2" x1="54.32" y1="29.61" x2="54.32" y2="74.56" xlink:href="#linear-gradient"/></defs><path class="cls-1" d="M75.25,4H33.4a30.95,30.95,0,0,0-21.89,9.05A30.86,30.86,0,0,0,2.45,34.92V76.71a30.91,30.91,0,0,0,31,30.89H75.27a30.93,30.93,0,0,0,31-30.89V34.92A31,31,0,0,0,75.25,4Z"/><path class="cls-2" d="M69.44,33.33H39.2c-5.3,0-7.49,2.72-7.49,9.05V69.23c0,6.35,2.24,9,7.49,9H69.44c5.3,0,7.49-2.7,7.49-9V42.33C76.93,36.05,74.68,33.33,69.44,33.33ZM54.31,66.09a10.28,10.28,0,1,1,9.49-6.35,10.31,10.31,0,0,1-9.49,6.35Zm14-21a4.5,4.5,0,0,1-3.19-7.69,4.59,4.59,0,0,1,3.19-1.33,4.41,4.41,0,0,1,1.72.35,4.52,4.52,0,0,1,1.46,1,4.56,4.56,0,0,1,1.31,3.19,4.45,4.45,0,0,1-1.32,3.17A4.5,4.5,0,0,1,68.27,45.12Z"/></svg>