<?xml version="1.0" encoding="utf-8"?>
<!-- Generator: Adobe Illustrator 26.0.0, SVG Export Plug-In . SVG Version: 6.00 Build 0)  -->
<svg version="1.1" id="Layer_1" xmlns="http://www.w3.org/2000/svg" xmlns:xlink="http://www.w3.org/1999/xlink" x="0px" y="0px"
	 viewBox="0 0 800 800" style="enable-background:new 0 0 800 800;" xml:space="preserve">
<style type="text/css">
	.st0{fill-rule:evenodd;clip-rule:evenodd;fill:#00A8DF;}
</style>
<desc>Created with Sketch.</desc>
<g id="Page-1">
	<g id="Dribbble-Light-Preview" transform="translate(-340.000000, -7439.000000)">
		<g id="icons" transform="translate(56.000000, 160.000000)">
			<path id="instagram-_x5B__x23_167_x5D_" class="st0" d="M519.7,7287.4c-64.5,2.9-120.5,18.7-165.7,63.7
				c-45.3,45.2-60.9,101.4-63.8,165.3c-1.8,39.9-12.4,341.1,18.3,420c20.8,53.3,61.6,94.3,115.4,115.1c25.1,9.8,53.7,16.4,95.8,18.3
				c351.3,15.9,481.6,7.2,536.5-133.4c9.7-25,16.5-53.6,18.3-95.6c16.1-352.2-2.6-428.6-63.8-489.7
				C962.1,7302.6,905,7269.6,519.7,7287.4 M523,7998.9c-38.5-1.7-59.3-8.2-73.3-13.5c-35-13.6-61.3-39.8-74.9-74.7
				c-23.4-60-15.7-345.1-13.6-391.2c2.1-45.2,11.2-86.5,43.1-118.4c39.5-39.4,90.4-58.6,437.5-43c45.3,2.1,86.7,11.2,118.6,43
				c39.5,39.4,59,90.7,43.1,436.5c-1.7,38.4-8.2,59.2-13.6,73.1C954.3,8002.2,872.1,8014.9,523,7998.9 M845.7,7468.4
				c0,26.1,21.2,47.2,47.3,47.2c26.2,0,47.4-21.2,47.4-47.2c0-26-21.2-47.2-47.4-47.2C866.8,7421.2,845.7,7442.4,845.7,7468.4
				 M479.8,7678.5c0,111.6,90.7,202.1,202.6,202.1S885,7790.1,885,7678.5s-90.7-202-202.6-202S479.8,7566.9,479.8,7678.5
				 M550.9,7678.5c0-72.4,58.9-131.2,131.5-131.2c72.6,0,131.5,58.8,131.5,131.2c0,72.5-58.9,131.2-131.5,131.2
				C609.8,7809.7,550.9,7751,550.9,7678.5"/>
		</g>
	</g>
</g>
</svg>
