<?xml version="1.0" encoding="utf-8"?>
<!-- Generator: Adobe Illustrator 26.0.0, SVG Export Plug-In . SVG Version: 6.00 Build 0)  -->
<svg version="1.1" id="Layer_1" xmlns="http://www.w3.org/2000/svg" xmlns:xlink="http://www.w3.org/1999/xlink" x="0px" y="0px"
	 viewBox="0 0 800 800" style="enable-background:new 0 0 800 800;" xml:space="preserve">
<style type="text/css">
	.st0{fill:none;stroke:#00A8DF;stroke-width:50;stroke-linecap:round;stroke-linejoin:round;stroke-miterlimit:133.3333;}
	.st1{fill:#A25CFF;}
</style>
<path class="st0" d="M698.8,231.9c5.9,330.8-186.9,471.6-296.2,504.8c-7.2,2.2-15,2.2-22.2,0C272.9,704,85.6,567.4,84.9,248.4
	c0.6-27.6,15.8-52.7,39.6-65.6C291,86.6,371,61.7,391.3,61.7c20.4,0,106.7,26.5,284.2,130.8C689.5,200.5,698.3,215.5,698.8,231.9z"
	/>
<path class="st1" d="M392,502c-20.1,0-36.3,16.3-36.3,36.3c0,20.1,16.3,36.3,36.3,36.3V502z M338.8,361.3l26.5-24.9
	c-1.2-1.3-2.6-2.6-4-3.7L338.8,361.3z M321.1,322.5l36.3,1.4c0-0.5,0-1,0-1.4H321.1z M392,298c20.1,0,36.3-16.3,36.3-36.3
	c0-20.1-16.3-36.3-36.3-36.3V298z M392,574.7c20.1,0,36.3-16.3,36.3-36.3c0-20.1-16.3-36.3-36.3-36.3V574.7z M357.4,446
	c0-20.1-16.3-36.3-36.3-36.3c-20.1,0-36.3,16.3-36.3,36.3H357.4z M428.3,538.4c0-20.1-16.3-36.3-36.3-36.3
	c-20.1,0-36.3,16.3-36.3,36.3H428.3z M355.6,593.7c0,20.1,16.3,36.3,36.3,36.3c20.1,0,36.3-16.3,36.3-36.3H355.6z M392,225.3
	c-20.1,0-36.3,16.3-36.3,36.3c0,20.1,16.3,36.3,36.3,36.3V225.3z M426.5,346.2c0,20.1,16.3,36.3,36.3,36.3
	c20.1,0,36.3-16.3,36.3-36.3H426.5z M355.6,261.6c0,20.1,16.3,36.3,36.3,36.3c20.1,0,36.3-16.3,36.3-36.3H355.6z M428.3,206.3
	c0-20.1-16.3-36.3-36.3-36.3c-20.1,0-36.3,16.3-36.3,36.3H428.3z M392,574.7c16.7,0,41.6-4.1,63.6-17.9c23.9-15,43.6-41.3,43.6-80
	h-72.6c0,6.2-1.4,9.7-2.7,11.8c-1.3,2.3-3.5,4.5-6.9,6.6c-7.6,4.7-18.1,6.8-25,6.8V574.7z M499.1,476.8c0-23.6-6.8-43.5-19.7-59.9
	c-12-15.2-27.7-25.1-40.8-32.5c-28.8-16.2-51.7-25.1-73.3-48l-52.9,49.8c31.5,33.5,70.6,50.2,90.5,61.5
	c11.2,6.3,16.6,10.7,19.5,14.4c2,2.5,4.1,6.1,4.1,14.8H499.1z M361.3,332.7c-2.4-1.9-4-5.1-3.8-8.7l-72.6-2.9
	c-1.1,26.5,10.5,52.2,31.6,68.8L361.3,332.7z M357.4,322.5c0-9.6,1.9-14.2,3-16.1c1-1.7,2.3-3,4.5-4.2c6-3.2,15.4-4.3,27-4.3v-72.6
	c-12,0-38,0.3-61.5,13c-12.5,6.8-24.5,17.1-33.2,32.2c-8.5,15-12.5,32.5-12.5,52H357.4z M392,502c-3.7,0-12.1-1.8-19.4-8.6
	c-6.3-5.9-15.1-18.7-15.1-47.4h-72.6c0,45.2,14.8,78.6,38,100.4c22.2,20.9,49.2,28.3,69.1,28.3V502z M355.6,538.4v55.4h72.6v-55.4
	H355.6z M392,298c7.3,0,15.6,1.8,21.5,6.5c4.3,3.5,13,13.1,13,41.7h72.6c0-45.3-14.9-77.9-40.1-98.3c-23.7-19.1-50.8-22.6-67.1-22.6
	V298z M428.3,261.6v-55.4h-72.6v55.4H428.3z"/>
</svg>
