<svg xmlns="http://www.w3.org/2000/svg" xmlns:xlink="http://www.w3.org/1999/xlink" viewBox="0 0 59.72 59.72"><defs><style>.cls-1{fill-rule:evenodd;fill:url(#New_Gradient_Swatch_2);}.cls-2{fill:none;stroke-miterlimit:10;stroke:url(#New_Gradient_Swatch_2-2);}</style><linearGradient id="New_Gradient_Swatch_2" x1="29.89" y1="47.37" x2="29.75" y2="10.34" gradientUnits="userSpaceOnUse"><stop offset="0" stop-color="#7d47d6"/><stop offset="0.24" stop-color="#0084d6"/><stop offset="0.49" stop-color="#0084d6"/><stop offset="0.79" stop-color="#00e4e7"/><stop offset="1" stop-color="#d7ffff"/></linearGradient><linearGradient id="New_Gradient_Swatch_2-2" x1="29.86" y1="59.72" x2="29.86" y2="0" xlink:href="#New_Gradient_Swatch_2"/></defs><g id="Layer_2" data-name="Layer 2"><g id="BACKGROUND"><g id="Page-1"><g id="Dribbble-Light-Preview"><g id="icons"><path id="linkedin-_161_" data-name="linkedin-[#161]" class="cls-1" d="M48.38,46.45H41v-13C41,29.93,39.4,28,36.59,28c-3.06,0-4.88,2.07-4.88,5.54v13h-7.4V22.38h7.4v2.7A8.94,8.94,0,0,1,39.27,21c5.24,0,9.11,3.19,9.11,9.81V46.45ZM15.87,18.53A4.56,4.56,0,1,1,20.39,14a4.55,4.55,0,0,1-4.52,4.56ZM11.34,46.45H20.6V22.38H11.34Z"/></g></g></g></g><g id="TEXTS"><path class="cls-2" d="M41.71.5H18A17.51,17.51,0,0,0,.5,18v23.7A17.51,17.51,0,0,0,18,59.22h23.7A17.51,17.51,0,0,0,59.22,41.71V18A17.51,17.51,0,0,0,41.71.5Z"/></g></g></svg>