<?xml version="1.0" encoding="utf-8"?>
<!-- Generator: Adobe Illustrator 26.0.0, SVG Export Plug-In . SVG Version: 6.00 Build 0)  -->
<svg version="1.1" id="Layer_1" xmlns="http://www.w3.org/2000/svg" xmlns:xlink="http://www.w3.org/1999/xlink" x="0px" y="0px"
	 viewBox="0 0 800 800" style="enable-background:new 0 0 800 800;" xml:space="preserve">
<style type="text/css">
	.st0{fill-rule:evenodd;clip-rule:evenodd;fill:#001330;}
	.st1{fill-rule:evenodd;clip-rule:evenodd;fill:#00A8DF;}
</style>
<path class="st0" d="M400,9.1L400,9.1c215.9,0,390.9,175,390.9,390.9v0c0,215.9-175,390.9-390.9,390.9h0
	C184.1,790.9,9.1,615.9,9.1,400v0C9.1,184.1,184.1,9.1,400,9.1z"/>
<path class="st1" d="M238.8,335.5v-49.1c0-89.1,72.2-161.2,161.2-161.2s161.2,72.2,161.2,161.2v49.1c26.7,2,44,7,56.6,19.7
	c21,21,21,54.8,21,122.3s0,101.3-21,122.3c-21,21-54.8,21-122.3,21H304.5c-67.6,0-101.3,0-122.3-21c-21-21-21-54.8-21-122.3
	s0-101.3,21-122.3C194.8,342.4,212.1,337.4,238.8,335.5z M274.6,286.4c0-69.2,56.2-125.4,125.4-125.4s125.4,56.2,125.4,125.4v47.9
	c-9.2-0.1-19.1-0.1-29.9-0.1H304.5c-10.8,0-20.7,0-29.9,0.1V286.4L274.6,286.4z M304.5,501.4c13.2,0,23.9-10.7,23.9-23.9
	c0-13.2-10.7-23.9-23.9-23.9s-23.9,10.7-23.9,23.9C280.5,490.6,291.3,501.4,304.5,501.4z M400,501.4c13.2,0,23.9-10.7,23.9-23.9
	c0-13.2-10.7-23.9-23.9-23.9s-23.9,10.7-23.9,23.9C376.1,490.6,386.8,501.4,400,501.4z M519.5,477.4c0,13.2-10.7,23.9-23.9,23.9
	c-13.2,0-23.9-10.7-23.9-23.9c0-13.2,10.7-23.9,23.9-23.9C508.7,453.6,519.5,464.3,519.5,477.4z"/>
</svg>
