<?xml version="1.0" encoding="utf-8"?>
<!-- Generator: Adobe Illustrator 26.0.0, SVG Export Plug-In . SVG Version: 6.00 Build 0)  -->
<svg version="1.1" id="Layer_1" xmlns="http://www.w3.org/2000/svg" xmlns:xlink="http://www.w3.org/1999/xlink" x="0px" y="0px"
	 viewBox="0 0 680 545.7" style="enable-background:new 0 0 680 545.7;" xml:space="preserve">
<style type="text/css">
	.st0{fill:none;stroke:#00A8DF;stroke-width:66.6667;stroke-linejoin:round;stroke-miterlimit:133.3333;}
	.st1{fill:none;stroke:#00A8DF;stroke-width:66.6667;stroke-linecap:round;stroke-linejoin:round;stroke-miterlimit:133.3333;}
</style>
<g>
	<path class="st0" d="M37.5,139.2c0-31.1,0-46.6,5.1-58.8c6.8-16.3,19.7-29.3,36.1-36.1c12.3-5.1,27.8-5.1,58.8-5.1l0,0h400l0,0
		c31.1,0,46.6,0,58.8,5.1c16.3,6.8,29.3,19.7,36.1,36.1c5.1,12.3,5.1,27.8,5.1,58.8v266.7c0,31.1,0,46.6-5.1,58.8
		c-6.8,16.3-19.7,29.3-36.1,36.1c-12.3,5.1-27.8,5.1-58.8,5.1l0,0h-400l0,0c-31.1,0-46.6,0-58.8-5.1c-16.3-6.8-29.3-19.7-36.1-36.1
		c-5.1-12.3-5.1-27.8-5.1-58.8V139.2z"/>
	<path class="st1" d="M70.8,72.5l222.8,194.9c25.1,22,62.7,22,87.8,0L604.2,72.5"/>
</g>
</svg>
