<?xml version="1.0" encoding="utf-8"?>
<!-- Generator: Adobe Illustrator 26.0.0, SVG Export Plug-In . SVG Version: 6.00 Build 0)  -->
<svg version="1.1" id="Layer_1" xmlns="http://www.w3.org/2000/svg" xmlns:xlink="http://www.w3.org/1999/xlink" x="0px" y="0px"
	 viewBox="0 0 800 800" style="enable-background:new 0 0 800 800;" xml:space="preserve">
<style type="text/css">
	.st0{fill:#A25CFF;}
	.st1{fill-rule:evenodd;clip-rule:evenodd;fill:#00A8DF;}
</style>
<path class="st0" d="M433.3,633.3c0,18.4-14.9,33.3-33.3,33.3c-18.4,0-33.3-14.9-33.3-33.3S381.6,600,400,600
	C418.4,600,433.3,614.9,433.3,633.3z"/>
<path class="st1" d="M307.8,33.3l1.6,0c0.3,0,0.5,0,0.8,0h179.6c0.3,0,0.5,0,0.8,0l1.6,0c0.8,0,1.6,0,2.3,0h5.5c0.5,0,1.1,0,1.6,0
	c2.9,0,5.4,0.1,7.8,0.3C575.6,38.4,628.3,91,633,157.2c0.3,4.8,0.3,10.1,0.3,17.3v399.3c0,27.3,0,49.8-1.5,68.1
	c-1.6,19-5,36.5-13.5,52.9c-12.6,24.4-32.5,44.2-56.9,56.9c-16.4,8.5-33.9,11.9-52.9,13.5c-18.3,1.5-40.9,1.5-68.1,1.5h-80.8
	c-27.3,0-49.8,0-68.1-1.5c-19-1.6-36.5-5-52.9-13.5c-24.4-12.6-44.2-32.5-56.9-56.9c-8.5-16.4-11.9-33.9-13.5-52.9
	c-1.5-18.3-1.5-40.9-1.5-68.1l0-399.3c0-7.2,0-12.5,0.3-17.3C171.7,91,224.4,38.4,290.5,33.7c2.4-0.2,5-0.3,7.8-0.3
	c0.5,0,1.1,0,1.6,0h5.5C306.2,33.3,307,33.3,307.8,33.3z M309.1,100c-9,0-11.7,0-13.8,0.2c-33.1,2.4-59.4,28.7-61.8,61.8
	c-0.1,2.1-0.2,4.8-0.2,13.8v396.6c0,29,0,48.8,1.3,64c1.2,14.8,3.5,22.4,6.2,27.7c6.3,12.2,16.3,22.1,28.4,28.4
	c5.3,2.7,12.9,5,27.7,6.2c15.2,1.3,35,1.3,64,1.3h78c29,0,48.8,0,64-1.3c14.8-1.2,22.4-3.5,27.7-6.2c12.2-6.3,22.1-16.3,28.4-28.4
	c2.7-5.3,5-12.9,6.2-27.7c1.3-15.2,1.3-35,1.3-64V175.7c0-9,0-11.7-0.2-13.8c-2.4-33.1-28.7-59.4-61.8-61.8
	c-2.1-0.1-4.8-0.2-13.8-0.2c-2.2,0-2.5,0-2.6,0c-4.3,0.2-8.3,2-11.3,5c-0.1,0.1-0.3,0.3-1.8,2l-16.3,18.1l-0.4,0.5
	c-0.2,0.2-0.6,0.6-1.1,1.1c-1,1-2.9,2.8-5.6,4.6c-3.2,2.1-6.7,3.7-10.4,4.6c-3.1,0.8-5.7,1-7.1,1.1c-0.7,0-1.3,0-1.5,0l-0.6,0h-64.3
	l-0.6,0c-0.3,0-0.9,0-1.5,0c-1.5-0.1-4-0.3-7.1-1.1c-3.7-1-7.2-2.5-10.4-4.6c-2.7-1.8-4.5-3.5-5.6-4.6c-0.5-0.5-0.9-0.9-1.1-1.1
	l-0.4-0.5L324.8,107c-1.5-1.7-1.7-1.8-1.8-2c-3-3.1-7-4.9-11.3-5C311.5,100,311.3,100,309.1,100z"/>
</svg>
