<?xml version="1.0" encoding="utf-8"?>
<!-- Generator: Adobe Illustrator 26.0.0, SVG Export Plug-In . SVG Version: 6.00 Build 0)  -->
<svg version="1.1" id="mobile-data-square" xmlns="http://www.w3.org/2000/svg" xmlns:xlink="http://www.w3.org/1999/xlink" x="0px"
	 y="0px" viewBox="0 0 800 800" style="enable-background:new 0 0 800 800;" xml:space="preserve">
<style type="text/css">
	.st0{fill:#00A8DF;}
	.st1{fill:#A25CFF;}
</style>
<path class="st0" d="M384.2,532.4c21.3,21.1,21.5,55.6,0.3,76.9c-0.1,0.1-0.2,0.2-0.3,0.3L275.5,718.4
	c-21.1,21.3-55.6,21.5-76.9,0.3c-0.1-0.1-0.2-0.2-0.3-0.3L89.5,609.6c-21.3-21.3-21.3-55.9,0-77.2c21.3-21.3,55.9-21.3,77.2,0
	l15.8,16.3V136c0-30,24.3-54.4,54.4-54.4s54.4,24.3,54.4,54.4v412.7l15.8-16.3c21.1-21.3,55.6-21.5,76.9-0.3
	C384,532.2,384.1,532.3,384.2,532.4z"/>
<path class="st1" d="M710.5,206.4L601.7,97.7c-21.1-21.3-55.6-21.5-76.9-0.3c-0.1,0.1-0.2,0.2-0.3,0.3L415.8,206.4
	c-21.3,21.3-21.3,55.9,0,77.2s55.9,21.3,77.2,0l15.8-16.3v412.7c0,30,24.3,54.4,54.4,54.4s54.4-24.3,54.4-54.4V267.3l15.8,16.3
	c21.1,21.3,55.6,21.5,76.9,0.3c0.1-0.1,0.2-0.2,0.3-0.3c21.3-21.1,21.5-55.6,0.3-76.9C710.7,206.7,710.6,206.5,710.5,206.4z"/>
</svg>
