<?xml version="1.0" encoding="utf-8"?>
<!-- Generator: Adobe Illustrator 26.0.0, SVG Export Plug-In . SVG Version: 6.00 Build 0)  -->
<svg version="1.1" id="_x32_" xmlns="http://www.w3.org/2000/svg" xmlns:xlink="http://www.w3.org/1999/xlink" x="0px" y="0px"
	 viewBox="0 0 800 800" style="enable-background:new 0 0 800 800;" xml:space="preserve">
<style type="text/css">
	.st0{fill:#A25CFF;}
	.st1{fill:#00A8DF;}
</style>
<g>
	<path class="st0" d="M149.3,331.9c34.1,0,65.3-13.9,87.6-36.3c22.4-22.3,36.3-53.5,36.3-87.6s-13.9-65.3-36.3-87.7
		C214.6,98,183.4,84,149.3,84C115.2,84,84,98,61.6,120.3c-22.4,22.3-36.3,53.5-36.3,87.6c0,34.1,13.9,65.3,36.3,87.6
		C84,318,115.2,331.9,149.3,331.9z M112,170.7c9.6-9.6,22.6-15.4,37.3-15.4c14.7,0,27.6,5.8,37.3,15.4c9.6,9.6,15.4,22.6,15.4,37.3
		c0,14.7-5.8,27.6-15.4,37.3c-9.7,9.6-22.6,15.4-37.3,15.4c-14.7,0-27.6-5.9-37.3-15.4c-9.6-9.7-15.4-22.6-15.4-37.3
		C96.6,193.3,102.4,180.3,112,170.7z"/>
	<path class="st0" d="M420.8,331.9c34.1,0,65.3-13.9,87.6-36.3c22.4-22.3,36.3-53.5,36.3-87.6c0-34.1-13.9-65.3-36.3-87.6
		C486.1,98,454.9,84,420.8,84c-34.1,0-65.3,13.9-87.6,36.3c-22.4,22.3-36.3,53.5-36.3,87.7c0,34.1,13.9,65.3,36.3,87.6
		C355.5,318,386.7,331.9,420.8,331.9z M383.6,170.7c9.6-9.6,22.6-15.4,37.3-15.4c14.7,0,27.6,5.8,37.3,15.4
		c9.6,9.6,15.4,22.6,15.4,37.3c0,14.7-5.8,27.6-15.4,37.3c-9.6,9.6-22.6,15.4-37.3,15.4c-14.7,0-27.6-5.9-37.3-15.4
		c-9.6-9.7-15.4-22.6-15.4-37.3C368.1,193.3,374,180.3,383.6,170.7z"/>
	<path class="st1" d="M485.6,351.9H81.5c-19.1,0-36.7,7.8-49.2,20.4C19.8,384.7,12,402.3,12,421.4v225c0,19.1,7.8,36.7,20.4,49.2
		C44.9,708.1,62.4,716,81.5,716h404.1c19.1,0,36.7-7.8,49.1-20.4c12.6-12.5,20.4-30.1,20.4-49.2v-225c0-19.1-7.8-36.7-20.4-49.2
		C522.3,359.7,504.7,351.9,485.6,351.9z M492.8,646.4c0,2.1-0.8,3.7-2.1,5.1c-1.4,1.3-3,2.1-5.1,2.1H81.5c-2.1,0-3.7-0.8-5.1-2.1
		c-1.3-1.4-2.1-3-2.1-5.1v-225c0-2.1,0.8-3.7,2.1-5.1c1.4-1.3,3-2.1,5.1-2.1h404.1c2.1,0,3.7,0.8,5.1,2.1c1.3,1.4,2.1,3,2.1,5.1
		L492.8,646.4L492.8,646.4z"/>
	<path class="st1" d="M759.2,370.4c-8.8-5.3-19-8.1-28.9-8.1c-9.2,0-18.2,2.2-26.6,6.7L592,428.4v70.7l132.2-70.5v210.7L592,568.7
		v70.7l111.5,59.5c8.4,4.5,17.5,6.7,26.6,6.7c10,0,20.1-2.7,29-8c16.9-10.2,27.3-28.6,27.3-48.4V418.7
		C786.6,398.9,776.2,380.5,759.2,370.4z"/>
</g>
</svg>
