<svg xmlns="http://www.w3.org/2000/svg" viewBox="0 0 797.68 800.01"><defs><style>.cls-1{fill:#04a7df;}</style></defs><g id="Layer_2" data-name="Layer 2"><g id="Capa_1" data-name="Capa 1"><path class="cls-1" d="M598.81,173.09c0,11.69,11.71,23.39,28.07,23.39,23.38,0,30.4-9.36,30.4-23.39v-4.67c-2.33-7-9.36-11.7-16.35-16.38-2.35,0-7-2.33-11.69-2.33C612.85,149.72,598.81,159.06,598.81,173.09Z"/><path class="cls-1" d="M647.94,95.89c-2.36-14-11.7-25.73-23.39-25.73s-18.72,11.7-16.36,25.73,11.68,25.74,23.38,25.74C640.93,121.63,650.27,109.93,647.94,95.89Z"/><path class="cls-1" d="M542.68,271.33l39.77-39.76c23.38,18.71,51.48,30.4,81.88,30.4a131,131,0,1,0-131-131c0,32.75,11.68,60.81,30.41,81.87L524,252.64C531,259.65,538,266.67,542.68,271.33ZM685.37,88.88h25.72V63.16h9.36V88.89h25.74v9.35H720.45V124h-9.36V98.23H685.37V88.88Zm-58.48,44.44c0-2.34,0-4.68,2.36-7h-4.67c-18.72,0-32.75-14-32.75-30.41s18.7-30.4,37.42-30.4h42.09l-9.36,7h-14c9.36,2.35,14,14,14,25.73,0,9.36-4.68,16.38-11.71,23.4-7,4.67-9.35,7-9.35,11.69s7,11.7,11.69,14c11.69,7,14,16.37,14,28.07,0,16.36-14,30.4-42.1,30.4-23.38,0-44.44-9.35-44.44-25.73s18.7-30.4,42.09-30.4h7C629.22,142.69,626.89,138,626.89,133.32Z"/><path class="cls-1" d="M664.32,538c-30.4,0-60.81,11.69-81.88,30.41l-39.76-39.77c-4.69,7-11.7,11.67-16.37,16.35l39.77,39.78c-18.71,23.37-30.4,51.47-30.4,81.88a131,131,0,0,0,262,0C795.3,594.13,736.83,538,664.32,538ZM626.89,727.48H601.16V645.6h25.73ZM615.2,633.92h0c-9.36,0-16.37-7-16.37-14.06s7-14,16.37-14,16.36,7,16.36,14C629.22,629.23,624.55,633.92,615.2,633.92Zm116.95,93.56h-30.4v-42.1c0-11.68-4.67-18.71-14-18.71-7,0-11.69,4.68-14,9.36v51.48H645.6V645.63h28.06v11.69c2.35-4.67,11.71-14,25.75-14,18.7,0,32.74,11.68,32.74,37.42v46.77Z"/><path class="cls-1" d="M252.63,528.66l-39.77,39.77C189.47,549.71,161.4,538,131,538A131,131,0,1,0,262,669c0-30.41-11.69-60.81-30.4-81.87l39.76-39.78C264.32,540.33,257.31,533.31,252.63,528.66ZM187.14,647.94c0,39.77-30.41,84.2-84.21,84.2-16.36,0-32.75-4.67-44.44-14h7c14,0,25.73-4.67,37.42-11.69-11.69,0-23.39-9.35-28.07-21.06h11.7c-14-2.36-23.39-14-23.39-28.07h0c4.68,2.35,9.35,4.67,14,4.67-7-4.67-14-14-14-23.39,0-4.66,2.34-9.36,4.68-14,14,18.73,35.07,30.41,60.8,30.41v-7c0-16.37,14-30.41,30.41-30.41,9.36,0,16.38,4.67,21.07,9.36,7-2.35,14-4.68,18.71-7-2.35,7-7,11.69-14.05,16.36,7,0,11.7-2.35,16.38-4.67-4.68,7-9.36,11.68-14,14C187.14,645.6,187.14,645.6,187.14,647.94Z"/><path class="cls-1" d="M131,262c30.41,0,60.81-11.69,81.87-30.4l39.77,39.76c4.68-7,11.69-11.68,16.37-16.36l-39.77-39.77c18.71-23.39,30.41-51.46,30.41-81.87a130.78,130.78,0,0,0-131-131C56.14,2.35,0,60.83,0,133.34,0,203.5,58.48,262,131,262Zm-30.41-152h14v-14c0-18.71,7-30.4,30.41-30.4h18.71V88.88H152c-9.35,0-9.35,2.34-9.35,9.35v11.7h21.05l-2.34,23.39H140.33v65.5H112.26v-65.5h-14V109.93Z"/><path class="cls-1" d="M517,465.48c-2.36-4.66-7-7-9.35-7-21.06-7-39.76-11.67-60.81-18.7-2.34,0-7-4.67-7-14,0-4.68,0-7-4.67-7-2.36,0,0,0-2.36-2.34-2.33-9.36-2.33-14.05-2.33-16.38s2.33-2.35,2.33-4.67c7-9.36,9.36-23.39,9.36-28.07a2.3,2.3,0,0,0,2.35-2.35c2.34-4.68,2.34-4.68,2.34-11.71,2.36-4.66,2.36-11.67-2.34-11.67-2.35,2.33-2.35,0-2.35-4.68V308.75c0-9.36-7-16.37-11.69-18.71-7-4.68-9.35-7-11.7-7q-3.53-3.51,0-7c2.34-2.33,4.67-2.33,4.67-4.68H421c-2.35,0-16.37,2.36-23.38,4.68-11.7,2.34-23.4,7-32.76,14-7,4.67-11.7,11.69-11.7,21.07v28.07c0,2.36,0,4.68-2.34,2.36-7,0-2.34,9.35-2.34,11.67,0,4.68,2.34,7,4.67,11.71a2.3,2.3,0,0,0,2.35,2.35c2.34,7,4.68,21.05,9.36,28.07,0,0,2.35,2.35,2.35,4.68,0,4.67,0,11.69-2.35,16.37a2.3,2.3,0,0,1-2.34,2.35c-4.68,0-4.68,2.34-4.68,7,0,7-4.68,14-7,14-11.69,4.66-46.77,16.37-58.48,18.7-7,2.36-9.35,4.68-11.69,7L269,493.59c46.77,0,70.18,28.07,119.3,37.43h23.39c49.12-7,84.2-37.43,117-37.43Z"/></g></g></svg>