<?xml version="1.0" encoding="utf-8"?>
<!-- Generator: Adobe Illustrator 26.0.0, SVG Export Plug-In . SVG Version: 6.00 Build 0)  -->
<svg version="1.1" id="Layer_1" xmlns="http://www.w3.org/2000/svg" xmlns:xlink="http://www.w3.org/1999/xlink" x="0px" y="0px"
	 viewBox="0 0 800 800" style="enable-background:new 0 0 800 800;" xml:space="preserve">
<style type="text/css">
	
		.st0{fill:#002146;fill-opacity:0;stroke:#00A8DF;stroke-width:33.3333;stroke-linecap:round;stroke-linejoin:round;stroke-miterlimit:25;}
	
		.st1{fill:#00A8DF;fill-opacity:0;stroke:#00A8DF;stroke-width:50;stroke-linecap:round;stroke-linejoin:round;stroke-miterlimit:25;}
	.st2{fill:none;stroke:#A25CFF;stroke-width:50;stroke-linecap:round;stroke-linejoin:round;stroke-miterlimit:25;}
</style>
<g>
	<path class="st0" d="M268.2,492.5l58.8-130.7 M389.9,351.7l101.4,88 M548.2,422.8L613,204.5"/>
	<path class="st1" d="M91.7,594.1h44.6 M91.7,478h44.6 M91.7,91.7v616.7h616.7 M91.7,137.2h44.6 M91.7,251.1h44.6 M91.7,364h44.6"/>
	<path class="st2" d="M286.8,536.2c0,24.8-20.1,44.9-44.9,44.9c-24.8,0-44.9-20.1-44.9-44.9c0-24.8,20.1-44.9,44.9-44.9
		C266.7,491.3,286.8,511.4,286.8,536.2z M396.1,318.2c0,24.8-20.1,44.9-44.9,44.9c0,0,0,0,0,0c-24.8,0-44.9-20.1-44.9-44.9
		s20.1-44.9,44.9-44.9C376,273.2,396.1,293.3,396.1,318.2L396.1,318.2z M577.6,469.8c0,24.8-20.1,44.9-44.9,44.9
		c-24.8,0-44.9-20.1-44.9-44.9c0-24.8,20.1-44.9,44.9-44.9C557.5,424.9,577.6,445,577.6,469.8z M667.7,164
		c0,24.8-20.1,44.9-44.9,44.9c-24.8,0-44.9-20.1-44.9-44.9c0-24.8,20.1-44.9,44.9-44.9C647.5,119.1,667.7,139.2,667.7,164L667.7,164
		z"/>
</g>
</svg>
