<?xml version="1.0" encoding="utf-8"?>
<!-- Generator: Adobe Illustrator 26.0.0, SVG Export Plug-In . SVG Version: 6.00 Build 0)  -->
<svg version="1.1" id="Layer_1" xmlns="http://www.w3.org/2000/svg" xmlns:xlink="http://www.w3.org/1999/xlink" x="0px" y="0px"
	 viewBox="0 0 800 800" style="enable-background:new 0 0 800 800;" xml:space="preserve">
<style type="text/css">
	.st0{fill-rule:evenodd;clip-rule:evenodd;fill:#001330;}
	.st1{fill:none;}
	.st2{fill:#00A8DF;}
</style>
<path class="st0" d="M398.8,8L398.8,8c215.9,0,390.9,175,390.9,390.9v0c0,215.9-175,390.9-390.9,390.9h0
	C182.9,789.9,7.8,614.9,7.8,399v0C7.8,183.1,182.9,8,398.8,8z"/>
<rect y="0" class="st1" width="800" height="800"/>
<path class="st2" d="M386.9,138c-115.8,0-209.7,93.9-209.7,209.7v49.8c-16,13.9-25.5,33.9-26.2,55c1.3,31.1,21.4,58.3,50.9,68.4
	c34,81.4,102.4,141.2,185,141.2h78.6v-52.4h-78.6c-59.2,0-113-44.6-139.9-115l-5.5-14.4l-15.5-1.6c-13-1.8-22.6-13-22.6-26.2
	c0.1-9.3,5-17.8,13.1-22.6l13.1-7.6v-48.5c0-14.5,11.7-26.2,26.2-26.2h262c14.5,0,26.2,11.7,26.2,26.2v131H436.9
	c-7.3-20.4-29.8-31.1-50.2-23.8c-20.4,7.3-31.1,29.8-23.8,50.2c5.3,14.7,18.6,24.9,34.2,26h199.4c28.9,0,52.4-23.4,52.4-52.4v-52.4
	c0-28.9-23.4-52.4-52.4-52.4v-52.4C596.5,231.8,502.7,138,386.9,138z"/>
</svg>
