<?xml version="1.0" encoding="utf-8"?>
<!-- Generator: Adobe Illustrator 26.0.0, SVG Export Plug-In . SVG Version: 6.00 Build 0)  -->
<svg version="1.1" id="_x32_" xmlns="http://www.w3.org/2000/svg" xmlns:xlink="http://www.w3.org/1999/xlink" x="0px" y="0px"
	 viewBox="0 0 800 800" style="enable-background:new 0 0 800 800;" xml:space="preserve">
<style type="text/css">
	.st0{fill-rule:evenodd;clip-rule:evenodd;fill:#001330;}
	.st1{fill:#00A8DF;}
</style>
<path class="st0" d="M400,9.1L400,9.1c215.9,0,390.9,175,390.9,390.9v0c0,215.9-175,390.9-390.9,390.9h0
	C184.1,790.9,9.1,615.9,9.1,400v0C9.1,184.1,184.1,9.1,400,9.1z"/>
<g>
	<path class="st1" d="M612.2,427.2c38.3,0,69.4-31.1,69.4-69.4s-31.1-69.4-69.4-69.4c-38.3,0-69.4,31.1-69.4,69.4
		S573.9,427.2,612.2,427.2z"/>
	<path class="st1" d="M701,494c-3.1-18.6-18.5-44.6-30.1-56.2c-1.5-1.5-8.4-1.9-10.3-0.8c-14.1,8.7-30.7,13.8-48.6,13.8
		c-17.8,0-34.4-5.1-48.5-13.8c-1.9-1.1-8.7-0.8-10.2,0.8c-3.2,3.2-6.8,7.5-10.3,12.6c9.4,17.6,16.8,36.3,19.5,52.4
		c2.6,16.1,1.8,31.5-2.5,45.3c15.4,5.6,33.8,8,52.1,8C659.9,556.2,708.7,539.7,701,494z"/>
	<path class="st1" d="M398.2,397.9c62.1,0,112.5-50.3,112.5-112.5c0-62.1-50.3-112.4-112.5-112.4c-62.1,0-112.4,50.3-112.4,112.4
		S336.1,397.9,398.2,397.9z"/>
	<path class="st1" d="M493.5,415.1c-2.4-2.4-13.5-3-16.5-1.2c-22.9,14.1-49.8,22.3-78.7,22.3c-28.8,0-55.8-8.2-78.7-22.3
		c-3-1.9-14.1-1.2-16.5,1.2c-18.9,18.9-43.8,61-48.8,91.2c-12.4,74.1,66.8,100.8,144,100.8s156.3-26.7,144-100.8
		C537.3,476.1,512.4,434,493.5,415.1z"/>
	<path class="st1" d="M187.8,427.2c38.3,0,69.4-31.1,69.4-69.4s-31.1-69.4-69.4-69.4s-69.4,31.1-69.4,69.4S149.5,427.2,187.8,427.2z
		"/>
	<path class="st1" d="M233.9,502.8c2.9-16.9,10.9-36.8,21-55.3c-2.8-3.8-5.6-7.2-8.2-9.7c-1.5-1.5-8.4-1.9-10.2-0.8
		c-14.1,8.7-30.7,13.8-48.5,13.8s-34.4-5.1-48.5-13.8c-1.9-1.1-8.7-0.8-10.3,0.8c-11.7,11.6-27,37.7-30.2,56.2
		c-7.6,45.7,41.2,62.2,88.9,62.2c17.1,0,34.2-2.1,48.9-6.9C232.1,535.1,231.2,519.4,233.9,502.8z"/>
</g>
</svg>
