<?xml version="1.0" encoding="utf-8"?>
<!-- Generator: Adobe Illustrator 26.0.0, SVG Export Plug-In . SVG Version: 6.00 Build 0)  -->
<svg version="1.1" id="Layer_1" xmlns="http://www.w3.org/2000/svg" xmlns:xlink="http://www.w3.org/1999/xlink" x="0px" y="0px"
	 viewBox="0 0 800 800" style="enable-background:new 0 0 800 800;" xml:space="preserve">
<style type="text/css">
	.st0{fill:#A25CFF;}
	.st1{fill-rule:evenodd;clip-rule:evenodd;fill:#00A8DF;}
</style>
<path class="st0" d="M366.7,400c0,18.4-14.9,33.3-33.3,33.3c-18.4,0-33.3-14.9-33.3-33.3c0-18.4,14.9-33.3,33.3-33.3
	C351.7,366.7,366.7,381.6,366.7,400z"/>
<path class="st0" d="M466.7,433.3c18.4,0,33.3-14.9,33.3-33.3c0-18.4-14.9-33.3-33.3-33.3c-18.4,0-33.3,14.9-33.3,33.3
	C433.3,418.4,448.3,433.3,466.7,433.3z"/>
<path class="st1" d="M633.3,133.3c0-55.2-44.8-100-100-100H266.7c-55.2,0-100,44.8-100,100v300c0,49.6,36.1,90.7,83.4,98.6
	l-80.7,188.2c-7.3,16.9,0.6,36.5,17.5,43.8c16.9,7.3,36.5-0.6,43.8-17.5l5.6-13.1h327.5l5.6,13.1c7.2,16.9,26.8,24.8,43.8,17.5
	c16.9-7.3,24.8-26.8,17.5-43.8L550,532c47.3-7.9,83.4-49.1,83.4-98.6V133.3z M535.2,666.7H264.8l14.3-33.3h241.8L535.2,666.7z
	 M492.3,566.7H307.7l14.3-33.3h156L492.3,566.7z M566.7,133.3c0-18.4-14.9-33.3-33.3-33.3h-100v166.7h133.3V133.3z M366.7,266.7V100
	h-100c-18.4,0-33.3,14.9-33.3,33.3v133.3H366.7z M233.3,433.3v-100h333.3v100c0,18.4-14.9,33.3-33.3,33.3H266.7
	C248.3,466.7,233.3,451.7,233.3,433.3z"/>
</svg>
