<?xml version="1.0" encoding="utf-8"?>
<!-- Generator: Adobe Illustrator 26.0.0, SVG Export Plug-In . SVG Version: 6.00 Build 0)  -->
<svg version="1.1" id="Layer_1" xmlns="http://www.w3.org/2000/svg" xmlns:xlink="http://www.w3.org/1999/xlink" x="0px" y="0px"
	 viewBox="0 0 2699.6 2214.2" style="enable-background:new 0 0 2699.6 2214.2;" xml:space="preserve">
<style type="text/css">
	.st0{fill:#EBEBEB;}
	.st1{fill:#A25CFF;}
	.st2{fill:#FFFFFF;}
	.st3{fill:#E6E6E6;}
	.st4{fill:#E0E0E0;}
	.st5{fill:none;stroke:#E0E0E0;stroke-miterlimit:10;}
	.st6{opacity:0.5;}
	.st7{fill:#318FFF;}
	.st8{fill:#407BFF;}
	.st9{opacity:0.2;fill:#FFFFFF;enable-background:new    ;}
	.st10{fill:#263238;}
	.st11{opacity:0.2;enable-background:new    ;}
	.st12{fill:#FF8B7B;}
	.st13{opacity:0.3;enable-background:new    ;}
	.st14{opacity:0.1;enable-background:new    ;}
	.st15{fill:#FF5652;}
	.st16{opacity:0.5;enable-background:new    ;}
	.st17{opacity:0.5;fill:#FFFFFF;enable-background:new    ;}
	.st18{opacity:0.4;enable-background:new    ;}
	.st19{fill:#F0F0F0;}
	.st20{fill:#B74D3C;}
	.st21{fill:#B25B52;}
	.st22{opacity:0.4;}
	.st23{opacity:0.3;fill:#FFFFFF;enable-background:new    ;}
	.st24{fill:#FFC0BA;}
</style>
<g id="Background_Complete">
	<rect x="1741.6" y="1924.2" class="st0" width="47" height="1.2"/>
	<rect x="709.9" y="1891.3" class="st0" width="505.6" height="1.2"/>
	<rect x="2250.3" y="1909.7" class="st1" width="178.9" height="1.2"/>
	<rect x="2141.2" y="1859.6" class="st1" width="103.7" height="1.2"/>
	<rect x="283.3" y="1868.6" class="st1" width="233.3" height="1.2"/>
	<rect x="564.7" y="1868.6" class="st1" width="34" height="1.2"/>
	<path class="st1" d="M1279.8,1582.1H237.2c-16.8,0-30.9-13.7-30.9-30.9V85.5c0-16.8,13.7-30.5,30.9-30.5h1042.6
		c17.2,0,30.9,13.7,30.9,30.9l0,0v1465.3C1310.3,1568,1296.6,1582.1,1279.8,1582.1z M237.2,56.2c-16.4,0-29.4,13.3-29.4,29.4v1465.7
		c0,16.4,13.3,29.4,29.4,29.4h1042.6c16.4,0,29.4-13.3,29.4-29.4V85.5c0-16.4-13.3-29.4-29.4-29.4H237.2V56.2z"/>
	<path class="st1" d="M2447.6,1582.1H1405c-16.8,0-30.9-13.7-30.9-30.9V85.5c0-16.8,14.1-30.5,30.9-30.5h1042.6
		c16.8,0,30.5,13.7,30.5,30.5v1465.7C2478.1,1568,2464.4,1581.7,2447.6,1582.1z M1405,56.2c-16.4,0-29.4,13.3-29.4,29.4v1465.7
		c0,16.4,13.3,29.4,29.4,29.4h1042.6c16.4,0,29.4-13.3,29.4-29.4V85.5c0-16.4-13.3-29.4-29.4-29.4H1405V56.2z"/>
	<rect y="1822.8" class="st1" width="2699.6" height="1.2"/>
	<path class="st0" d="M435.6,1283.9l130.7-54.8c29.7-12.5,64.2,1.6,76.3,31.3l3.9,9c12.5,29.7-1.6,64.2-31.3,76.3l-130.7,54.8
		c-29.7,12.5-64.2-1.6-76.3-31.3l-3.9-9C391.8,1330.5,405.8,1296.4,435.6,1283.9z"/>
	<path class="st2" d="M463,1332.4l-9.8,4.3l-2.3-5.9l27-11.3l2.3,5.9l-9.8,3.9l10.2,25l-7,3.1L463,1332.4z"/>
	<path class="st2" d="M520.1,1310.1l1.2,27l-6.7,2.7l-11.3-12.5l0.8,16.8l-6.7,2.7l-18.4-20l6.7-2.7l12.1,13.7l-1.2-18l5.9-2.3
		l12.1,13.7l-0.8-18.4L520.1,1310.1z"/>
	<path class="st2" d="M551.4,1312.8l-18,7.4c2,2.7,5.9,3.5,8.6,2c2.3-0.8,3.9-2.7,5.1-4.7l5.5,2.3c-3.5,7.4-12.1,11-20,7.8
		c-2.7-1.2-5.5-3.5-7-6.3c-2.7-6.7,0.4-14.5,6.7-17.2c0.4,0,0.4,0,0.8-0.4c6.3-3.1,13.7-0.4,16.8,5.9c0,0.4,0.4,0.8,0.4,1.2
		C551,1311.7,551.4,1312.5,551.4,1312.8z M531.9,1316.8l11.7-5.1c-2-3.1-5.9-3.9-8.6-2C532.3,1310.9,531.1,1314,531.9,1316.8z"/>
	<path class="st2" d="M579.2,1301.5l-17.6,7.4c2,2.7,5.9,3.5,8.6,2c2.3-0.8,3.9-2.3,5.1-4.7l5.5,2.3c-3.1,7.4-12.1,11-19.6,7.8
		c-3.1-1.2-5.5-3.5-7-6.3c-2.7-6.7,0-14.1,6.7-17.2c0.4,0,0.4-0.4,0.8-0.4c6.3-3.1,13.7-0.4,16.8,5.9c0,0.4,0.4,0.8,0.4,1.2
		C578.8,1299.9,578.8,1300.7,579.2,1301.5z M559.7,1305l11.7-4.7c-1.6-2.7-5.1-3.9-7.8-2.3C560.4,1298.8,558.5,1301.9,559.7,1305
		L559.7,1305z"/>
	<path class="st2" d="M602.7,1301.9c-1.2,1.6-3.1,3.1-5.1,3.9c-3.9,2.3-9.4,1.2-11.7-3.1c-0.4-0.4-0.4-1.2-0.8-1.6l-3.9-9.8
		l-3.5,1.6l-2.3-5.5l3.5-1.6l-2.3-5.9l7-2.7l2.3,5.9l5.9-2.3l2.3,5.5l-5.9,2.3l3.9,9.4c0.4,1.6,2,2.7,3.5,2c0.4,0,0.4,0,0.8-0.4
		c0.8-0.4,2-1.2,2.3-2L602.7,1301.9z"/>
	<path class="st3" d="M274,1113.6l357.7,45.4c11.7,1.6,19.6,12.1,18.4,23.5l-9.8,76.3c-1.6,11.7-12.1,19.6-23.5,18.4l-357.7-45.4
		c-11.7-1.6-19.6-12.1-18.4-23.5l9.8-76.3C252,1120.3,262.6,1112.1,274,1113.6z"/>
	<path class="st2" d="M364.4,1171.2l-1.2,10.2l18,2.3l-0.8,7l-17.6-2.3l-2,14.1l-9-1.2l4.7-38.4l29,3.9l-0.8,7L364.4,1171.2z"/>
	<path class="st2" d="M385.1,1190.3c0.8-9,8.6-15.7,17.2-14.9c9,0.8,15.7,8.6,14.9,17.2c-0.8,9-8.6,15.7-17.2,14.9h-0.4
		c-8.6-0.4-15.3-7.4-14.9-16C384.7,1191.1,384.7,1190.7,385.1,1190.3z M408.6,1193.5c0.8-3.9-1.6-8.2-5.5-9c-0.4,0-0.4,0-0.8,0
		c-4.7,0-8.2,3.9-8.2,8.6c0,3.5,2.3,6.7,5.9,7.8c3.9,0.4,7.8-2.3,8.6-6.3C408.6,1193.9,408.6,1193.5,408.6,1193.5z"/>
	<path class="st2" d="M426.6,1169.2l8.6,1.2l-5.5,40.7l-8.6-1.2L426.6,1169.2z"/>
	<path class="st2" d="M442.6,1171.2l8.6,1.2l-5.5,40.7l-8.6-1.2L442.6,1171.2z"/>
	<path class="st2" d="M454,1199c0.8-9,8.6-15.7,17.2-14.9c9,0.8,15.7,8.6,14.9,17.2c-0.8,9-8.6,15.7-17.2,14.9h-0.4
		c-8.6-0.4-14.9-7.8-14.5-16C454,1199.7,454,1199.3,454,1199z M477.9,1202.1c0.4-4.3-3.1-7.8-7.4-8.2c-4.3-0.4-7.8,3.1-8.2,7.4
		c-0.4,3.9,2.7,7.4,6.7,7.8c3.9,0.8,7.8-2.3,8.6-6.3C477.9,1202.9,477.9,1202.5,477.9,1202.1z"/>
	<path class="st2" d="M540.9,1195l-14.5,28.2l-8.2-1.2l-4.3-19.2l-9.4,17.6l-8.2-1.2l-7-30.5l8.2,1.2l4.7,20.7l9.8-19.2l7,0.8
		l4.7,21.1l9.8-19.2L540.9,1195z"/>
	
		<rect x="431" y="860.7" transform="matrix(0.6049 -0.7963 0.7963 0.6049 -651.9775 810.3904)" class="st4" width="119.4" height="403.1"/>
	<path class="st2" d="M349.5,972.4l6.7-3.5c1.6,4.3,4.3,8.2,7.8,11c4.3,3.1,7,3.1,8.6,1.2c4.3-5.9-16.4-15.3-7.8-27
		c3.9-5.5,11.7-6.3,20.4,0c3.9,2.7,6.7,6.7,8.6,11l-6.3,3.9c-1.6-3.5-3.9-6.7-6.7-9c-4.3-3.1-7-2.7-8.6-0.8
		c-4.3,5.5,16.4,15.3,7.8,27c-3.9,5.5-11.3,6.3-20.4-0.4C355,982.1,351.4,977.4,349.5,972.4z"/>
	<path class="st2" d="M387.8,984.9l13.3-17.2l7,5.5l-12.9,17.2c-4.3,5.9-3.9,10.2,0.8,13.3c4.3,3.1,8.6,2.7,13.3-3.1l12.9-16.8
		l7,5.5l-13.3,17.2c-5.9,7.8-16.8,9.4-24.7,3.5C383.5,1003.7,382,992.7,387.8,984.9L387.8,984.9z"/>
	<path class="st2" d="M447.3,1038.1c-3.9,5.5-11,5.5-18.8-0.8l-16-12.1l23.5-30.9l14.9,11.3c7.8,5.9,9.4,12.1,5.5,16.8
		c-2,2.7-5.9,4.3-9.4,3.5C450.1,1029.5,450.1,1034.6,447.3,1038.1z M439.1,1004.8l-5.5,7.4l7,5.5c3.5,2.7,6.3,2.7,8.2,0.4
		s0.8-5.1-2.7-7.8L439.1,1004.8z M440.7,1031.8c2-2.7,0.8-5.5-2.7-8.2l-8.2-6.3l-5.9,7.8l8.2,6.3
		C436,1034.2,438.7,1034.6,440.7,1031.8L440.7,1031.8z"/>
	<path class="st2" d="M446.2,1045.5l6.7-3.5c1.6,4.3,4.3,8.2,7.8,11c4.3,3.1,7,3.1,8.6,1.2c4.3-5.9-16.4-15.3-7.8-27
		c3.9-5.5,11.7-6.3,20.4,0c3.9,2.7,6.7,6.7,8.6,11l-6.3,3.9c-1.6-3.5-3.9-6.7-6.7-9c-4.3-3.1-7-2.7-8.6-0.8
		c-4.3,5.9,16.4,15.3,8.2,27c-3.9,5.1-11.7,6.3-20.4-0.4C451.6,1055.3,448.1,1051,446.2,1045.5z"/>
	<path class="st2" d="M484.5,1054.9c6.7-9,19.2-10.6,27.8-3.9c0.4,0.4,0.8,0.4,1.2,0.8c5.1,3.5,8.2,9,8.6,15.3l-7.8,0.8
		c0-3.9-2-7.4-5.1-9.4c-5.5-4.3-13.3-3.5-17.6,1.6c-4.3,5.5-3.5,13.3,1.6,17.6c0.4,0.4,0.4,0.4,0.8,0.8c3.1,2.3,7,3.1,11,2.3
		l1.6,7.8c-11.7,2-22.7-6.3-24.7-18C480.6,1064.7,481.8,1059.6,484.5,1054.9L484.5,1054.9z"/>
	<path class="st2" d="M526.4,1111.3l0.4-13.3l-0.4-0.4l-6.3-4.7l-6.7,8.6l-7-5.5l23.5-30.9l13.3,10.2c8.2,6.3,10.2,14.5,5.1,21.5
		c-3.1,4.3-8.6,6.3-13.7,5.1l-0.8,15.3L526.4,1111.3z M538.9,1081.2l-5.9-4.3l-8.2,11l5.9,4.3c4.3,3.5,8.2,3.1,11-0.4
		C544.4,1088.6,543.2,1084.7,538.9,1081.2z"/>
	<path class="st2" d="M562.8,1090.2l7,5.5l-23.5,30.9l-7-5.5L562.8,1090.2z"/>
	<path class="st2" d="M588.6,1145.3c-3.9,5.5-11,5.5-18.8-0.8l-16-12.1l23.5-30.9l14.9,11.3c7.8,5.9,9.4,12.1,5.5,16.8
		c-2,2.7-5.9,4.3-9.4,3.9C591,1136.7,591.4,1141.8,588.6,1145.3z M580.4,1112.1l-5.5,7l7,5.5c3.5,2.7,6.3,2.7,8.2,0.4
		c2-2.3,0.8-5.1-2.7-7.8L580.4,1112.1z M582,1139.1c2-2.7,0.8-5.5-2.7-8.2l-8.2-6.3l-5.9,7.4l8.2,6.3
		C576.9,1141.4,580,1141.8,582,1139.1L582,1139.1z"/>
	<path class="st2" d="M615.6,1170.4l-4.3,5.9l-23.9-18l23.5-30.9l23.5,17.6l-4.3,5.9l-16-12.1l-5.1,6.7l14.5,11l-4.3,5.5l-14.5-11
		l-5.5,7L615.6,1170.4z"/>
	<path class="st4" d="M708,477.3c-8.2,0-14.9-6.7-14.9-14.9l0,0V426h-7.4c-10.6,0-18.8-8.6-18.8-18.8l0,0V235
		c0-10.6,8.6-18.8,18.8-18.8h268.5c10.6,0,18.8,8.6,18.8,18.8v172.2c0,10.6-8.6,18.8-18.8,18.8H778.8l-62.2,48.1
		C713.8,476.5,711.1,477.3,708,477.3z M685.7,221.7c-7.4,0-13.3,5.9-13.3,13.3v172.2c0,7.4,6.3,13.7,13.7,13.7h12.5v41.9
		c0,5.1,4.3,9.4,9.4,9.4c2,0,3.9-0.8,5.5-2l63.8-49.3h177.3c7.4,0,13.7-6.3,13.7-13.7V235c0-7.4-5.9-13.3-13.3-13.3H685.7
		L685.7,221.7z"/>
	<rect x="772.2" y="195.1" class="st4" width="33.7" height="3.9"/>
	<path class="st4" d="M648.5,243.2h-4.3v-20c0-15.7,12.5-28.2,28.2-28.2h75.1v3.9h-75.1c-13.3,0-24.3,11-24.3,24.3l0,0v20H648.5z"/>
	<path class="st4" d="M892.7,296.9H745.2c-4.3-0.8-7.4-5.1-6.7-9.4c0.4-3.5,3.1-6.3,6.7-6.7h147.5c4.3-0.8,8.6,2.3,9.4,6.7
		c0.8,4.3-2.3,8.6-6.7,9.4C894.3,296.9,893.5,296.9,892.7,296.9L892.7,296.9z"/>
	<path class="st4" d="M892.7,329.3H745.2c-4.3-0.8-7.4-5.1-6.7-9.4c0.4-3.5,3.1-6.3,6.7-6.7h147.5c4.3-0.8,8.6,2.3,9.4,6.7
		c0.8,4.3-2.3,8.6-6.7,9.4C894.3,329.3,893.5,329.3,892.7,329.3L892.7,329.3z"/>
	<path class="st4" d="M892.7,361.8H745.2c-4.3,0.8-8.6-2.3-9.4-6.7c-0.8-4.3,2.3-8.6,6.7-9.4c0.8,0,2,0,2.7,0h147.5
		c4.3-0.8,8.6,2.3,9.4,6.7c0.8,4.3-2.3,8.6-6.7,9.4C894.3,361.8,893.5,361.8,892.7,361.8L892.7,361.8z"/>
	<path class="st4" d="M1511.1,500h147.5c4.3-0.8,7.4-5.1,6.7-9.4c-0.4-3.5-3.1-6.3-6.7-6.7h-147.5c-4.3-0.8-8.6,2.3-9.4,6.7
		c-0.8,4.3,2.3,8.6,6.7,9.4C1509.5,500,1510.3,500,1511.1,500z"/>
	<path class="st4" d="M1511.1,532.5h147.5c4.3-0.8,7.4-5.1,6.7-9.4c-0.4-3.5-3.1-6.3-6.7-6.7h-147.5c-4.3-0.8-8.6,2.3-9.4,6.7
		s2.3,8.6,6.7,9.4C1509.5,532.9,1510.3,532.9,1511.1,532.5z"/>
	<path class="st4" d="M1511.1,564.9h147.5c4.3-0.8,7.4-5.1,6.7-9.4c-0.4-3.5-3.1-6.3-6.7-6.7h-147.5c-4.3-0.8-8.6,2.3-9.4,6.7
		s2.3,8.6,6.7,9.4C1509.5,565.3,1510.3,565.3,1511.1,564.9z"/>
	<path class="st5" d="M1736.9,525.8c0,25.8-14.9,49.3-39.1,67.3v59.5c0,3.5-2.3,6.3-5.9,6.7c-2,0-3.9-0.8-5.1-2l-56.7-35.2
		c-15.3,3.1-30.9,4.7-46.2,4.7c-84.5,0-153-45-153-100.6s68.5-100.6,153-100.6C1668.4,425.2,1736.9,470.2,1736.9,525.8z"/>
	<path class="st0" d="M1962.3,406.4h-22.7c-11,0-20,8.6-20.4,19.6l-5.5,104.9c-0.8,10.2,7,18.8,17.2,19.6c0.4,0,0.8,0,1.2,0h22.7
		c11,0,20-8.6,20.4-19.6l5.5-104.9c0.8-10.2-7-18.8-17.2-19.6C1963.1,406.4,1962.7,406.4,1962.3,406.4z M1962.7,530.5
		c-0.4,3.9-3.5,7-7.4,7h-22.7c-3.5,0-6.7-2.7-6.7-6.7v-0.4l5.5-104.9c0.4-3.9,3.5-7,7.4-7h22.7c3.9,0,6.7,3.1,6.7,6.7v0.4
		L1962.7,530.5z"/>
	<path class="st0" d="M2141.9,406.4h-66.5l14.9-34.8c1.6-3.9,2.3-7.8,2-11.7l-3.1-27.4c-1.2-11.3-10.6-19.6-21.9-19.6h-26.6
		l-2.3,42.7l-43.1,54c-4.3,5.5-6.7,11.7-7,18.8l-5.5,98.2c-0.8,12.5,8.6,23.1,21.1,23.9c0.4,0,1.2,0,1.6,0h93.1
		c8.2,0,16-3.5,21.5-9.8l8.6-9.8c3.5-3.9,5.9-8.2,7-13.3l20.4-90.8L2141.9,406.4z"/>
	<g class="st6">
		<path class="st0" d="M1962.3,406.4h-22.7c-11,0-20,8.6-20.4,19.6l-5.5,104.9c-0.8,10.2,7,18.8,17.2,19.6c0.4,0,0.8,0,1.2,0h22.7
			c11,0,20-8.6,20.4-19.6l5.5-104.9c0.8-10.2-7-18.8-17.2-19.6C1963.1,406.4,1962.7,406.4,1962.3,406.4z M1962.7,530.5
			c-0.4,3.9-3.5,7-7.4,7h-22.7c-3.5,0-6.7-2.7-6.7-6.7v-0.4l5.5-104.9c0.4-3.9,3.5-7,7.4-7h22.7c3.9,0,6.7,3.1,6.7,6.7v0.4
			L1962.7,530.5z"/>
	</g>
</g>
<g id="Shadow">
	<ellipse id="_Path_" class="st7" cx="1349.8" cy="2002.4" rx="1046.9" ry="61.1"/>
</g>
<g id="Podium">
	<rect x="742" y="1505.8" class="st8" width="1243" height="409.8"/>
	<rect x="742" y="1506.2" class="st9" width="1243" height="409.8"/>
	<rect x="1078.2" y="1101.1" class="st8" width="539.7" height="409.8"/>
	<rect x="1078.2" y="1101.1" class="st9" width="539.7" height="409.8"/>
	<path class="st10" d="M1398,1217.4l-30.5,152.6h-35.2l25-124.1h-30.5l5.5-28.2L1398,1217.4z"/>
</g>
<g id="Character_2">
	<polygon class="st10" points="1679,951.6 1700.1,973.9 1848.8,874.9 2017.1,930.5 2163.5,822.5 2173.2,840.1 2212.8,773.5 
		2135.3,772.4 2145.1,790 2014.7,903.9 1846.1,849.5 	"/>
	<path class="st11" d="M1768.2,1548.1l113.1-3.9c-26.6-7.8-54.8-7-82.6-10.2c-7.8-0.4-16-2.3-23.5-4.7c-7-2.7-13.7-7-20.7-10.2
		c-9.4-3.9-19.6-5.1-29.4-3.5c-3.1,0.4-6.3,1.2-9,2.7c-5.5,3.1-9.4,8.2-11.3,14.1c-2,5.1-2.7,10.6-3.1,16l0,0c0,0.8,0,1.6,0,2.3l0,0
		c0,11.7,2.7,23.5,7.4,34.4c26.2,63.4,238.7,9.4,238.7,9.4c-7.4,41.9,3.5,73.2,11.3,114.7l20,110l-21.1,2.3l8.6,30.9h18.8v-304.1
		L1768.2,1548.1z"/>
	<path class="st11" d="M1986.6,1878.8v34.4l-0.8-1.2l-4.7-24.3c0-0.4,0-0.8,0-1.2C1981.1,1883.5,1983,1879.9,1986.6,1878.8z"/>
	<g id="Character--inject-2">
		<polygon class="st12" points="2086,1853.3 2119.2,1849.8 2122.4,1771.5 2089.1,1775 		"/>
		<path class="st10" d="M2122.8,1835.7l-38-0.4c-1.2,0-2.3,0.8-2.7,2c0,0,0,0,0,0.4l-2.3,29.7c0,3.1,2.7,5.9,5.9,5.9
			c12.9,0,18.4-0.8,35.2-1.6c10.2-0.8,34.4-2.3,48.1-4.7c13.7-2.7,11-16,4.7-16c-14.5-0.4-36.4-5.1-45.8-12.5
			C2126.7,1836.5,2124.7,1835.7,2122.8,1835.7z"/>
		<polygon class="st11" points="2089.1,1775 2122.4,1771.5 2120.8,1809.1 2087.5,1811.8 		"/>
		<path class="st10" d="M1851.9,1429.9c0,0,253.6-12.5,270.4,82.2c8.2,88.8,9.8,178.1,4.7,267.3l-47,9c0,0-36.8-164-32.9-244.6
			c-70.1-7.8-260.3,26.2-290-25.8c-24.3-42.7-19.6-68.9-19.6-68.9L1851.9,1429.9z"/>
		<polygon class="st8" points="2065.2,1803.2 2136.5,1800.1 2141.5,1773.1 2062.5,1775.8 		"/>
		<path class="st8" d="M2140.8,1840c1.2-1.2,1.6-2.7,1.2-4.3c0-1.2-0.8-2-2-2.3c-3.9-1.6-13.7,4.7-14.5,5.5l-0.4,0.4
			c0,0.4,0,0.8,0.4,0.8l0,0c2.7,0.8,5.9,1.2,9,1.2C2136.9,1842,2138.8,1841.2,2140.8,1840z M2139.6,1834.9c0.4,0.4,0.8,0.8,0.8,1.2
			c0.4,0.8,0,2-0.4,2.7c-1.6,1.6-5.9,1.6-12.1,0.4C2131.8,1836.9,2137.2,1834.1,2139.6,1834.9z"/>
		<path class="st8" d="M2126.3,1840c3.5-2,8.6-9,7.8-12.5c-0.4-1.2-1.6-2.3-2.7-2.3c-1.2-0.4-2.7,0.4-3.5,1.2
			c-3.5,3.1-2.7,12.9-2.7,13.3s0,0.4,0.4,0.8h0.4L2126.3,1840z M2130.6,1826.7c1.2,0,1.6,0.8,1.6,1.2c0.4,2.3-2.7,7.4-5.9,10.2
			c-0.4-3.9,0.4-7.4,2.3-11C2129,1826.7,2129.8,1826.7,2130.6,1826.7L2130.6,1826.7z"/>
		<path class="st13" d="M2015.9,1484.3c0,0,52.8-15.3,64.2,16.8c11.3,32.1-2,187.5-17.6,222.3c-15.7,34.8-44.6-233.6-44.6-233.6
			L2015.9,1484.3z"/>
		<polygon class="st12" points="2016.7,1878.8 2049.2,1878 2046.8,1799.3 2014.4,1800.1 		"/>
		<path class="st10" d="M2049.6,1868.2l-37.6,2.3c-1.2,0-2.3,1.2-2.3,2.3v29.7c0.4,3.1,3.1,5.5,6.3,5.5c12.9-1.2,19.2-2.3,35.6-3.5
			c14.9-0.4,29.4-1.6,43.8-4.3c13.7-3.1,10.2-16.4,4.3-16.4c-15.7-0.8-31.3-5.9-44.6-14.5
			C2053.9,1868.6,2051.5,1867.8,2049.6,1868.2z"/>
		<path class="st8" d="M2068,1870.9c1.2-1.2,1.2-2.7,0.8-4.3c-0.4-1.2-1.2-2-2-2c-4.3-1.6-13.3,5.9-14.1,6.7l-0.4,0.4
			c0,0.4,0.4,0.8,0.8,0.8l0,0c3.1,0.4,5.9,0.8,9,0.8C2064.1,1873.3,2066.4,1872.5,2068,1870.9z M2066,1866.2c0.4,0,0.8,0.4,0.8,1.2
			c0.4,0.8,0.4,2-0.4,2.7c-1.2,1.6-5.9,2-11.7,1.2C2058.6,1868.6,2064.1,1865.5,2066,1866.2L2066,1866.2z"/>
		<path class="st8" d="M2053.9,1872.5c3.1-2.3,7.8-9.8,6.7-12.9c-0.4-1.2-1.6-2.3-3.1-2.3c-1.2,0-2.7,0.4-3.5,1.2
			c-3.1,3.5-1.6,12.9-1.6,13.3s0.4,0.4,0.4,0.8h0.4C2053.5,1872.9,2053.5,1872.5,2053.9,1872.5z M2057,1858.8c1.2,0,1.6,0.8,1.6,1.2
			c0.8,2.3-2.3,7.8-5.1,10.6c-0.8-3.5,0-7.4,1.6-11C2055.4,1858.8,2056.2,1858.8,2057,1858.8L2057,1858.8z"/>
		<polygon class="st11" points="2011.6,1799.3 2047.6,1793.4 2048,1842.4 2016.3,1846.3 		"/>
		<path class="st10" d="M1802.2,1437.3c0,0,250.5,18.8,253.6,92c18.4,119,4.7,275.5,4.7,275.5l-59.9,12.5c0,0-30.9-146.8-35.2-254.4
			c-61.4,10.2-187.5,29.4-230.9-1.2c-39.1-35.2-28.2-107.6-28.2-107.6L1802.2,1437.3z"/>
		<polygon class="st8" points="1994.8,1836.9 2068,1830.6 2069.5,1798.5 1989.3,1806.7 		"/>
		<path class="st12" d="M1819.5,1219.7c1.6,5.9,2.7,11,4.3,16s3.1,10.2,4.7,15.3c3.5,10.2,7,20,11.3,30.1
			c8.6,21.1,20,41.1,33.7,59.1c3.9,5.1,8.6,9.8,13.3,14.1c5.5,4.7,11.3,9,18,11.7c12.5,5.9,26.6,7.8,40.3,6.7
			c12.1-1.2,23.9-4.3,34.8-9.4c5.1-2.3,10.2-5.1,15.3-7.8c2.3-1.6,4.7-3.1,7-4.7c2.3-2,4.3-3.1,7-5.5l-12.9-21.5l-6.3,2l-6.7,2
			c-4.7,1.2-9,2.3-13.7,2.7c-8.2,1.6-16.8,2-25.4,1.2c-6.7-0.4-13.3-2.7-19.2-6.3c-2.3-1.6-4.7-3.5-7-5.9c-2.7-2.7-5.1-5.9-7-9
			c-5.1-7.4-9.4-14.9-12.9-23.1c-3.9-8.2-7.8-17.2-11.3-26.2s-6.7-18-9.8-27.4l-4.3-14.1c-1.6-4.7-2.7-9.4-3.9-13.3L1819.5,1219.7z"
			/>
		<path class="st8" d="M1814.8,1191.5c20.4-27.4,52.4-18.8,71.6,23.5c10.6,22.3,19.2,45.8,25.8,69.7l-74,28.6
			C1817.5,1273.3,1794,1219.7,1814.8,1191.5z"/>
		<path class="st14" d="M1814.8,1191.5c20.4-27.4,52.4-18.8,71.6,23.5c10.6,22.3,19.2,45.8,25.8,69.7l-74,28.6
			C1817.5,1273.3,1794,1219.7,1814.8,1191.5z"/>
		<path class="st13" d="M1847.6,1235.4c-6.3-3.9-18,20.7-23.1,49.7c4.3,9.8,9,19.2,13.7,28.2l44.6-17.2
			C1874.6,1269,1861.7,1244.4,1847.6,1235.4z"/>
		<path class="st12" d="M1999.9,1312.5l16-9.4l7,36.4c0,0-27,17.2-35.2,3.9l0.4-9.4C1988.9,1325.4,1993.2,1317.5,1999.9,1312.5z"/>
		<polygon class="st12" points="2036.7,1300.3 2051.9,1329.3 2022.6,1339.5 2015.9,1303.1 		"/>
		<path class="st8" d="M1814,1167.6l-38.7-4.3l-47.4,5.5c-14.9,2-26.6,13.3-29,28.2c-4.3,34.8-6.3,70.1-6.3,105.7
			c-0.4,39.9,5.9,98.2,14.1,151.1l158.9-24.3c-2.7-139.3,6.3-182.8,6.3-219.9c0-14.9-9.8-27.8-24.3-32.1L1814,1167.6z"/>
		<path class="st8" d="M1814,1167.6l-38.7-4.3l-47.4,5.5c-14.9,2-26.6,13.3-29,28.2c-4.3,34.8-6.3,70.1-6.3,105.7
			c-0.4,39.9,5.9,98.2,14.1,151.1l158.9-24.3c-2.7-139.3,6.3-182.8,6.3-219.9c0-14.9-9.8-27.8-24.3-32.1L1814,1167.6z"/>
		<path class="st13" d="M1713.8,1183.3c31.7-6.7,32.5,65.7,19.6,119c-3.9,15.3-21.9,9.8-28.2,5.9
			C1684.4,1296,1675,1208,1713.8,1183.3z"/>
		<path class="st12" d="M1713.4,1290.5c2.3,31.3-7,48.1,9.8,57.9s116.6,39.5,119,35.2c-4.7,7.8-9,14.1-13.3,21.9
			c-28.6-3.5-57.1-6.3-85.7-9c-20.7-2-54.4-6.3-71.2-18.8c-15.3-11.3-14.1-63.8-12.9-101.4
			C1671.9,1268.2,1713.4,1290.5,1713.4,1290.5z"/>
		<path class="st8" d="M1700.9,1171.2c32.5-11,45.8,15.3,37.2,60.7c-4.3,24.3-10.6,48.5-19.2,71.6l-69.3-19.6
			C1655.9,1239.7,1667.6,1182.1,1700.9,1171.2z"/>
		<path class="st10" d="M1748.2,1169.6c-0.8,7,1.2,13.7,5.5,19.6c4.3,5.5,9,10.6,14.5,14.9c6.7,5.9,14.5,11.7,23.1,10.2
			c8.6-1.6,12.5-5.5,15.3-15.3c7,11,7.8,16,15.3,16.8c5.1-0.4,9.4-3.1,12.5-7c5.5-4.7,8.6-11.3,9.4-18.8c1.2-14.1-10.6-27-23.9-31.3
			c-13.7-3.9-27.8-6.3-41.9-7C1765.8,1150.8,1750.6,1155.1,1748.2,1169.6z"/>
		<path class="st12" d="M1779.9,1101.1l18,19.6l24.3,26.6c-2,3.1-3.5,6.3-4.7,9.8c-3.1,7.8,0,16.4,7,20.7
			c3.5,1.6,5.9,20.4-17.6,19.2c-13.7,0-26.6-5.1-36.4-15.3c-4.7-5.9-5.9-8.6-1.6-15.3C1781.9,1147.7,1781.9,1121.5,1779.9,1101.1z"
			/>
		<path class="st11" d="M1816.3,1140.3l-15.7-19.2c0,0.8-0.4,1.2-0.4,2c-0.8,2.7-1.2,5.5-1.2,8.6c-0.8,9.8,9,21.9,18,27l0.8-2
			c0.8-3.1,2.3-6.3,3.9-9.4l0.4-0.4L1816.3,1140.3z"/>
		<path class="st10" d="M1837.8,1095.2c14.5-27.8,11.3-43.8,25-58.7c7.4-3.1,20.4,10.2,11.7,33.7
			C1866,1093.7,1837.8,1095.2,1837.8,1095.2z"/>
		<path class="st12" d="M1780.3,1063.9c-1.6,32.5-3.9,51.3,10.6,69.3c21.5,27,63,16,74.4-15.3c10.2-28.2,11-76.3-19.2-92
			c-21.9-11.3-49.3-2.7-60.7,19.6l0,0C1782.3,1051,1780.3,1057.7,1780.3,1063.9z"/>
		<path class="st10" d="M1776.4,1092.9l26.2,10.6l-6.7-28.2l14.5-8.2l17.6-26.2c0,0-38-11-49.3-12.5c-3.9-0.4-18,10.2-20,14.9
			c-5.5,12.9-3.1,27.8,6.3,38.7C1768.2,1085.5,1772.1,1089.4,1776.4,1092.9z"/>
		<path class="st10" d="M1789.7,994.7c8.2-3.9,18.4,1.2,27.4,3.9c8.6,3.1,17.6,5.5,26.6,7.8c7.8,2,16,0.8,23.1-2.7
			c7-3.9,10.2-12.9,7-20.7c16.4,9.4,22.3,30.1,12.9,47c-2,3.5-4.7,7-8.2,9.8c-8.2,6.3-18.4,9.4-29,9.4c-10.2-0.4-20.4-1.6-30.5-4.3
			c-13.3-2.7-32.5-3.1-45-9.4C1761.9,1028.7,1764.3,1007.2,1789.7,994.7z"/>
		<path class="st12" d="M1764.3,1087.4c0.8,7,4.3,13.7,9.8,18.8c7,5.9,15.3-1.2,16-10.2c0.4-8.2-3.9-20-12.5-22.7
			C1769.8,1070.6,1763.1,1078.4,1764.3,1087.4z"/>
		<path class="st10" d="M1829.2,1081.9c-0.4,2.7,0.8,5.1,2.3,5.5c2,0.4,3.1-1.6,3.9-4.3c0.8-2-0.4-4.3-2.3-5.5
			C1831.2,1077.2,1829.6,1079.2,1829.2,1081.9z"/>
		<path class="st10" d="M1859.4,1087.4c-0.4,2.7,0.8,5.5,2.3,5.5s3.5-1.6,3.9-4.3s-0.8-5.1-2.3-5.5
			C1861.3,1083.1,1859.8,1084.7,1859.4,1087.4z"/>
		<path class="st15" d="M1849.2,1087.8c1.2,7.4,3.1,14.9,6.3,21.9c-3.5,1.6-7.8,1.2-11-0.8L1849.2,1087.8z"/>
		<path class="st10" d="M1839.8,1124.2c-6.3-0.8-11.7-4.3-15.7-9.8c-0.4-0.4,0-0.8,0.4-1.2s0.8-0.4,1.2,0c3.9,5.5,10.6,9,17.2,9.4
			c0.4,0,0.8,0.4,0.8,0.8s-0.4,0.8-0.8,0.8l0,0l0,0C1842.2,1124.2,1841,1124.2,1839.8,1124.2z"/>
		<path class="st10" d="M1824.9,1071.4c-0.4,0-0.4-0.4-0.8-0.4c-0.8-0.8-0.8-1.6,0-2.3c3.5-3.5,9-5.1,13.7-3.9
			c0.8,0.4,1.2,1.2,1.2,2l0,0c-0.4,0.8-1.2,1.2-2,1.2l0,0c-3.9-0.8-7.8,0.4-11,3.1C1826.1,1071.4,1825.3,1071.4,1824.9,1071.4z"/>
		<path class="st10" d="M1862.1,1070.2c0-0.4,0-0.4,0-0.8c0.4-0.8,1.2-1.6,2-1.2c5.1,1.2,9,4.7,11,9c0,0.8-0.4,1.6-1.2,2
			c-0.8,0-1.2-0.4-1.6-0.8c-1.6-3.5-4.7-6.3-8.6-7C1862.5,1071,1862.1,1070.6,1862.1,1070.2z"/>
	</g>
	<path class="st8" d="M1948.6,1489.4l216.8-28.2c2.3-0.4,3.9-2.3,3.5-4.7l0,0l0,0c-0.4-2.3-2.3-3.9-4.7-3.5l-216.8,28.2
		c-2.3,0.4-3.9,2.3-3.5,4.7l0,0C1944.3,1488.2,1946.3,1489.7,1948.6,1489.4L1948.6,1489.4z"/>
	<path class="st16" d="M1948.6,1489.4l216.8-28.2c2.3-0.4,3.9-2.3,3.5-4.7l0,0l0,0c-0.4-2.3-2.3-3.9-4.7-3.5l-216.8,28.2
		c-2.3,0.4-3.9,2.3-3.5,4.7l0,0C1944.3,1488.2,1946.3,1489.7,1948.6,1489.4L1948.6,1489.4z"/>
	<path class="st8" d="M1841.8,1488.2l105.3,1.2c2.3,0,3.9-1.6,4.3-3.9l0,0l0,0c0-2.3-2-4.3-3.9-4.3l0,0l-105.3-1.2
		c-2.3,0-3.9,2-4.3,3.9l0,0C1837.5,1486.2,1839.4,1488.2,1841.8,1488.2L1841.8,1488.2z"/>
	<path class="st17" d="M1841.8,1488.2l105.3,1.2c2.3,0,3.9-1.6,4.3-3.9l0,0l0,0c0-2.3-2-4.3-3.9-4.3l0,0l-105.3-1.2
		c-2.3,0-3.9,2-4.3,3.9l0,0C1837.5,1486.2,1839.4,1488.2,1841.8,1488.2L1841.8,1488.2z"/>
	<path class="st8" d="M1953.7,1484.7l-115.8-0.8c0,0-3.9-2.3,3.9-3.9s108.4-14.9,108.4-14.9L1953.7,1484.7z"/>
	<path class="st8" d="M1953.7,1484.7l-113.1-1.2c0,0-3.9-2.3,3.9-3.9s105.7-14.5,105.7-14.5L1953.7,1484.7z"/>
	<path class="st9" d="M1953.7,1484.7l-113.1-1.2c0,0-3.9-2.3,3.9-3.9s105.7-14.5,105.7-14.5L1953.7,1484.7z"/>
	<path class="st8" d="M1953.3,1480.3l202.3-26.6c7.4-1.2,12.5-7.4,12.5-14.9l-4.3-103.7c-0.4-6.7-5.9-11.7-12.1-11.3
		c-0.4,0-0.8,0-1.2,0l-202.3,26.6c-7.4,1.2-12.5,7.4-12.5,14.9l4.3,103.3c0.4,6.7,5.9,11.7,12.1,11.3
		C1952.5,1480.3,1952.9,1480.3,1953.3,1480.3z"/>
	<path class="st18" d="M1953.3,1480.3l202.3-26.6c7.4-1.2,12.5-7.4,12.5-14.9l-4.3-103.7c-0.4-6.7-5.9-11.7-12.1-11.3
		c-0.4,0-0.8,0-1.2,0l-202.3,26.6c-7.4,1.2-12.5,7.4-12.5,14.9l4.3,103.3c0.4,6.7,5.9,11.7,12.1,11.3
		C1952.5,1480.3,1952.9,1480.3,1953.3,1480.3z"/>
	<path class="st8" d="M1959.2,1479.2l202.3-26.2c7.4-1.2,12.5-7.4,12.5-14.9l-4.3-103.3c0-6.7-5.5-11.7-12.1-11.7
		c-0.4,0-0.8,0-1.2,0l-202.3,26.6c-7.4,1.2-12.5,7.4-12.5,14.9l4.3,103.7c0.4,6.7,5.5,11.7,12.1,11.3
		C1958.4,1479.6,1958.8,1479.6,1959.2,1479.2z"/>
	<path class="st9" d="M1959.2,1479.2l202.3-26.2c7.4-1.2,12.5-7.4,12.5-14.9l-4.3-103.3c0-6.7-5.5-11.7-12.1-11.7
		c-0.4,0-0.8,0-1.2,0l-202.3,26.6c-7.4,1.2-12.5,7.4-12.5,14.9l4.3,103.7c0.4,6.7,5.5,11.7,12.1,11.3
		C1958.4,1479.6,1958.8,1479.6,1959.2,1479.2z"/>
	<path class="st10" d="M1873.9,1240.4c-21.9-4.7-45,16.8-51.7,47.4c-6.3,30.9,6.3,59.5,28.2,64.2c21.9,4.7,45.4-16.8,51.7-47.7
		C1908.7,1273.7,1896.2,1245.1,1873.9,1240.4z M1854.7,1346.9c-14.1-2.7-20.7-27.8-15.3-55.2c5.9-27.8,21.5-47.7,36-44.6
		c14.5,2.7,20.7,27.8,15.3,55.6C1885.2,1330.1,1869.2,1350,1854.7,1346.9z"/>
	<path class="st17" d="M1890.7,1302.3c-5.9,27.8-21.5,47.7-36,44.6s-20.7-27.8-15.3-55.2c5.9-27.8,21.5-47.7,36-44.6
		C1889.9,1249.8,1896.6,1274.5,1890.7,1302.3z"/>
	<path class="st10" d="M1843.3,1349.6l-23.9,74.8c0,0,1.2,9.4,12.1,4.7c11-4.7,18.8-76.7,18.8-76.7L1843.3,1349.6z"/>
	<path class="st12" d="M1819.5,1370l16.8-5.5v41.5c0,0-36.4,9.8-39.1-7l4.3-9C1805,1381.7,1810.5,1372.3,1819.5,1370z"/>
	<polygon class="st12" points="1861.7,1375.5 1857.8,1398.6 1835.9,1406 1836.3,1364.5 	"/>
	<polygon class="st19" points="2028.8,1161 2028.8,1161 2028.4,1161 	"/>
</g>
<g id="Character_1">
	<g id="_Group_">
		<path class="st10" d="M785.5,689.8c1.6-0.4,3.5,1.6,3.9,3.9c0.4,2.3-0.4,5.1-2,5.5s-3.5-1.6-3.9-3.9
			C782.7,692.5,783.9,690.2,785.5,689.8z"/>
		<path class="st20" d="M790.9,723.8c4.3,0,9-1.6,11.7-5.1c-6.7-5.5-12.1-12.1-17.2-19.6L790.9,723.8z"/>
		<path class="st10" d="M772.2,682.4c2.3-3.1,6.3-4.7,10.2-4.3h0.4c0.8,0,1.6-0.8,1.6-1.6s-0.8-1.6-1.6-1.6
			c-5.1-0.4-9.8,1.6-12.9,5.5c-0.4,0.4-0.4,0.8-0.4,1.2c0,0.8,0.8,1.6,1.6,1.6C771.4,682.7,771.8,682.7,772.2,682.4z"/>
		<path class="st21" d="M754.9,840.1c-44.6,0.4-51.3-23.9-51.3-23.9c13.3-12.9,13.7-36.8,11-57.9c3.5,5.1,8.2,9.4,13.3,12.5
			c9.4,6.3,21.1,8.6,32.5,5.9h0.4c0,0.4,0,0.8,0,1.2c-2.7,16.8-0.4,35.2,17.6,40.3C778.4,818.6,803.9,839.3,754.9,840.1z"/>
		<path class="st21" d="M762.4,770.4c-0.4,2-0.8,3.9-1.2,6.3h-0.4c-11,2.7-23.1,0.8-32.5-5.9c-5.1-3.1-9.8-7.4-13.3-12.5
			c-0.8-5.5-1.6-11-2.7-15.3l48.5,26.6L762.4,770.4z"/>
		<path class="st8" d="M690,820.1c0,0,7-21.5,17.6-28.6s57.1,0.4,64.6,3.1c7.4,2.7,14.9,19.6,14.9,19.6L690,820.1z"/>
		<path class="st21" d="M665.7,889c13.7,2,26.2-7.4,28.2-20.7c2-12.5-5.9-24.3-18.4-27.8l0,0c-20-4.3-40.7-9.4-60.7-14.5
			s-27-5.5-45.8-12.1c-4.7-1.6-9.4-3.5-14.1-5.5l-2.3-0.8c-0.4,0-0.8-0.4-1.2-0.4c-1.2-0.8-2.3-1.6-3.5-2.3
			c-6.3-5.9-48.5-60.7-56.7-79.4l-0.4-0.8c-2.7-6.3-9.8-9.4-16-6.7c-5.1,2.3-8.2,7.4-7.4,12.9c2.3,22.7,44.2,99.4,52.4,109.2
			c2.7,2.7,5.9,5.5,9,7.8s6.7,4.3,10.2,5.9c5.5,2.3,41.5,13.3,62.6,19.6C623.1,880,643.8,885.1,665.7,889L665.7,889z"/>
		<path class="st21" d="M488,718.4v4.3c0.4,4.3-2,8.2-5.9,9.8c-7.4,3.1-16,3.9-23.9,3.1l6.7-37.2l18.4,11.7
			C486.1,712.1,487.6,715.2,488,718.4z"/>
		<polygon class="st21" points="464.9,698.4 458.3,735.6 433.6,721.1 432.8,687.4 		"/>
		<path class="st10" d="M673.1,813.5c-9.4,1.6-47.4,9.4-78.7,0.8l-2,64.2c0,0,54.4,27,79.1,7.4C696.2,866.3,711.9,831.1,673.1,813.5
			z"/>
		<polygon class="st8" points="603.1,894.9 578.4,883.9 585.5,807.2 608.6,811.5 		"/>
		<path class="st10" d="M801.5,810.7c-7-1.2-15.3-2.3-23.5-3.1c-24.7-1.2-49.7-0.8-74.4,0.8l-16,1.6c-25.8,2-52.1,24.3-47,49.7
			c29,140.5,20.7,218.4,18,241.5l174.9-2c18-144,13.3-216.8,5.9-252C835.6,828.7,820.3,813.9,801.5,810.7z"/>
		<path class="st11" d="M839.1,1049.1l-5.5,50.9c11.3-90.4,13.3-152.6,11.7-194.9l-66.5-44.6C809,954.7,818.7,984.5,839.1,1049.1z"
			/>
		<path class="st21" d="M794.1,734c-0.4,15.7-8.2,29.7-21.5,38h-0.4c-3.1,2-7,3.5-11,4.7h-0.4c-11,2.7-23.1,0.8-32.5-5.9
			c-5.1-3.1-9.8-7.4-13.3-12.5c-8.6-11.7-12.5-27.8-18.8-50.5c-2-6.7-2.3-13.7-1.2-20.4c4.3-24.3,27.4-40.3,51.7-35.6
			C780.4,657.7,794.9,703.9,794.1,734z"/>
		<path class="st11" d="M772.2,772c-3.1,2-7,3.5-11,4.7l1.2-20C762.4,756.7,769.4,772,772.2,772z"/>
		<path class="st10" d="M774.5,716.8c-1.2,14.1-8.6,27-20,35.2c-1.6,1.2-3.1,2-4.7,2.3c-5.5,1.2-11-3.5-13.7-8.6
			c-3.1-7-4.3-14.5-4.3-21.9c-0.8-17.6,1.6-37.2,14.1-49.7c2.7-3.1,6.7-5.1,11-5.9C772.9,667.5,775.7,706.6,774.5,716.8z"/>
		<path class="st10" d="M704.8,637.4c-9-3.1-19.2,2-22.3,11c-1.6,4.7-1.2,10.2,1.6,14.5c-14.1,4.3-27.4,14.9-30.1,29.4
			c-2.7,14.5,9,31.3,23.9,29.7c-5.1,4.3-6.3,11.7-2,17.2c3.1,3.9,8.2,5.5,12.9,3.9c11.3,19.2,47,23.1,64.2,9c3.9-3.1,1.2-6.7,2-11.7
			c1.2-5.5-1.6-10.6-6.3-13.3l3.9-12.9l-11-12.1c9.8-7.4,20-15.7,24.3-27.4s-0.8-27.4-12.9-30.5c7-2,11.3-9,9.8-16
			c-0.4-0.8-0.4-2-1.2-2.7c-4.3-6.3-12.5-7.8-18.8-3.5c-0.8,0.4-1.2,0.8-1.6,1.6c-3.5-4.7-6.3-9.8-11.7-11.3
			C707.2,605.6,700.9,629.9,704.8,637.4z"/>
		<path class="st21" d="M766.7,693.3c9.4,2.7,14.1,16.4,14.5,25.4c0.4,9.8-5.9,15.7-14.5,9.4c-6.3-5.1-11-11.7-12.9-19.6
			C751.4,698.8,757.3,690.6,766.7,693.3z"/>
		<path class="st8" d="M750.2,1932c-0.4,0-0.8-0.4-0.8-0.8s0-0.8,0.4-0.8c0.8-0.4,12.5-7.4,18.4-5.9c1.2,0.4,2,0.8,2.7,2
			s0.8,2.3,0,3.5c-1.6,2-5.5,2.7-10.2,2.7C757.3,1933.2,753.8,1932.8,750.2,1932z M766.3,1926.1c-4.7,0.8-9.4,2.3-13.7,4.7
			c6.7,0.8,15.3,0.4,16.8-1.6c0.4-0.4,0.4-0.8,0-2c-0.4-0.8-0.8-1.2-1.6-1.2C767.5,1926.1,766.7,1926.1,766.3,1926.1L766.3,1926.1z"
			/>
		<path class="st8" d="M749.9,1932c-0.4,0-0.4-0.4-0.4-0.8c0-5.1,2-9.8,5.1-13.3c1.2-1.2,3.1-1.6,4.7-1.6c2.3,0,3.1,1.2,3.1,2.3
			c0.8,3.9-7.4,11.7-11.7,13.7l0,0C750.2,1932,749.9,1932,749.9,1932z M758.5,1917.9c-1.2,0-2,0.4-2.7,1.2c-2.3,3.1-3.9,6.7-4.3,11
			c4.3-2.7,9.8-8.6,9.4-11C760.4,1918.7,760.4,1917.9,758.5,1917.9L758.5,1917.9L758.5,1917.9z"/>
		<polygon class="st21" points="713.5,1851.8 747.9,1851.4 746.7,1931.2 711.9,1932 		"/>
		<path class="st10" d="M754.9,1929.6c23.9,14.1,31.3,14.5,58.7,20c5.9,1.2,2.3,15.7-11.7,16c-23.9,0.4-26.2-0.8-46.6,0
			c-17.2,0.4-37.2,1.6-50.9,2h-1.2c-2.7-0.4-4.3-3.1-3.9-5.9l0,0l6.3-30.9c0.4-1.6,1.6-2.3,2.7-2.3l38-0.8
			C749.5,1927.7,752.2,1928.5,754.9,1929.6z"/>
		<polygon class="st11" points="713.5,1851.8 712.7,1892.8 747.5,1892.5 747.9,1851.4 		"/>
		<path class="st8" d="M459.5,1937.5c0,0.4-0.8,0.8-1.2,0.4c-0.4,0-0.4-0.4-0.4-0.4c-0.4-0.8-7-12.5-5.5-18.4c0.4-1.2,0.8-2,2-2.7
			c1.2-0.8,2.7-0.8,3.5,0c2,1.6,2.7,5.5,2.7,10.2C460.6,1930,460.2,1933.9,459.5,1937.5z M453.6,1921c0.4,4.7,2,9.4,4.3,13.7
			c0.8-6.7,0.8-15.3-1.6-16.8c0-0.4-0.8-0.4-2,0c-0.8,0.4-1.2,0.8-1.2,1.6C453.6,1920.2,453.6,1920.6,453.6,1921L453.6,1921z"/>
		<path class="st8" d="M459.5,1937.9c0,0.4-0.4,0.4-0.8,0.4c-5.1-0.4-9.8-2-13.3-5.5c-1.2-1.2-1.6-2.7-1.6-4.7
			c0-2.3,1.2-3.1,2.3-3.1c3.9-0.8,11.3,7.4,13.3,11.7v0.4C459.5,1937.1,459.5,1937.5,459.5,1937.9z M445.4,1928.9
			c0,1.2,0.4,2,1.2,2.7c3.1,2.7,6.7,3.9,11,4.3c-2.7-4.3-8.6-9.8-11-9.4c0,0-0.8,0-0.8,1.6L445.4,1928.9L445.4,1928.9z"/>
		<polygon class="st21" points="477.5,1856.5 511.1,1858 492.7,1939 458.7,1937.5 		"/>
		<path class="st10" d="M450.5,1933.2c-9,11-14.1,16.8-40.7,25.4c-5.9,2-0.8,16,13.7,14.5c23.5-2.3,11-2.3,30.5-4.3
			c17.2-2,37.2-3.1,50.9-4.3c0.4,0,0.8,0,1.6,0c2.7-0.8,3.9-3.9,3.1-6.3l-9.8-30.1c-0.4-1.2-2-2.3-3.1-2l-38,3.9
			C455.9,1929.6,452.8,1930.8,450.5,1933.2z"/>
		<polygon class="st11" points="477.5,1856.5 467.7,1897.9 501.7,1899.9 511.1,1858 		"/>
		<path class="st8" d="M658.3,1101.9c-12.5,20.7-22.7,42.7-30.5,65.4c-17.6,50.5-10.2,76.7-16,110.8c-9.8,60.3-25,106.5-35.6,151.8
			c-32.9,142.8-115.5,444.6-115.5,444.6l61.4,12.1c0,0,119.4-351.1,149.1-453.2c27-92,96.3-333.8,96.3-333.8L658.3,1101.9z"/>
		<path class="st8" d="M658.3,1101.9c-12.5,20.7-22.7,42.7-30.5,65.4c-17.6,50.5-10.2,76.7-16,110.8c-9.8,60.3-25,106.5-35.6,151.8
			c-32.9,142.8-115.5,444.6-115.5,444.6l61.4,12.1c0,0,119.4-351.1,149.1-453.2c27-92,96.3-333.8,96.3-333.8L658.3,1101.9z"/>
		<path class="st8" d="M453.6,1863.1v21.5l73.6,6.3l5.9-23.9L453.6,1863.1z"/>
		<path class="st13" d="M735.4,1210.3c-21.5,75.9-49.7,171.8-64.2,222.3c-0.8,2.3-1.6,5.1-2.3,7.8c4.3-83.8,18-224.3,59.9-230.5
			C731.1,1209.9,733.4,1209.9,735.4,1210.3z"/>
		<path class="st8" d="M714.6,1100.3c0,0-12.9,230.9-12.9,339.7c0.4,101.8,1.6,445,1.6,445l59.1-1.2c0,0,34-350.7,42.3-454
			c7.8-97.8,29-330.3,29-330.3L714.6,1100.3z"/>
		<path class="st8" d="M714.6,1100.3c0,0-12.9,230.9-12.9,339.7c0.4,101.8,1.6,445,1.6,445l59.1-1.2c0,0,34-350.7,42.3-454
			c7.8-97.8,29-330.3,29-330.3L714.6,1100.3z"/>
		<path class="st8" d="M694.3,1864.7l2.3,21.5l71.6-1.6l2.7-24.3L694.3,1864.7z"/>
		<path class="st8" d="M929.9,755.5l18-12.5c3.9,19.6,22.7,34.4,36.8,43.4c6.7,4.3,9,14.1,4.3,17.6l-11.7,8.2
			C963.1,822.1,929.9,755.5,929.9,755.5z"/>
		<path class="st8" d="M922.8,760.2l41.1-28.6c13.3-9.4,16.8-27.4,7.4-40.7l0,0c-9.4-13.3-27.4-16.4-41.1-7.4l-41.1,28.6
			c-13.3,9.4-16.4,27.4-7.4,40.7l0,0C891.1,766.1,909.5,769.6,922.8,760.2z"/>
		<path class="st13" d="M922.8,760.2l41.1-28.6c13.3-9.4,16.8-27.4,7.4-40.7l0,0c-9.4-13.3-27.4-16.4-41.1-7.4l-41.1,28.6
			c-13.3,9.4-16.4,27.4-7.4,40.7l0,0C891.1,766.1,909.5,769.6,922.8,760.2z"/>
		<path class="st8" d="M1048.9,716l-76.7,32.5c-5.9,4.3-60.3-74-54-78.3l57.1-60.7L1048.9,716z"/>
		<path class="st8" d="M1006.2,666.7c20.4,29.4,39.5,51.7,42.7,49.3s-11-27.8-31.3-57.1c-20.4-29.4-39.5-51.7-42.7-49.3
			C971.8,611.9,985.8,637.4,1006.2,666.7z"/>
		<path class="st13" d="M1006.2,666.7c20.4,29.4,39.5,51.7,42.7,49.3s-11-27.8-31.3-57.1c-20.4-29.4-39.5-51.7-42.7-49.3
			C971.8,611.9,985.8,637.4,1006.2,666.7z"/>
		<path class="st8" d="M1024.6,657.3c-5.1-7-15.3-9.8-18.8-7.4c-3.5,2.3-2.3,10.2,2.7,17.2c5.1,7,11.7,11,15.3,8.6
			C1028.5,670.6,1028.9,662.8,1024.6,657.3z"/>
		<path class="st21" d="M924,791.2l5.5-15.3c3.5-9.4,9.8-17.6,18-23.1l11.3-7.8c2.3-1.6,5.5-0.8,7,1.2c7.8,10.6,12.9,22.7,15.3,35.6
			c0.4,3.1-1.2,6.3-3.9,8.2l-24.7,16.4c-3.9,3.1-8.6,4.7-12.1,1.2L924,791.2z"/>
		<path class="st21" d="M951.8,795.5l-17.6,74c-0.4,2.3-1.2,4.7-2,7c-14.9,55.2-43.4,84.5-56.7,77.9c-13.3-6.7-42.3-39.1-42.3-39.1
			l32.9-25.8l9.4,7.8l51.3-110.8l7.4-15.3C934.2,771.2,956.9,770.8,951.8,795.5z"/>
		<path class="st21" d="M934.2,869.8l-1.6,7l0,0C933,874.5,933.4,872.2,934.2,869.8z"/>
		<path class="st10" d="M836.7,826.4c30.1,24.7,48.5,76.7,48.5,76.7L836.7,934c0,0-63.8-45-58.7-88.1
			C781.6,813.1,799.9,795.9,836.7,826.4z"/>
		<polygon class="st8" points="809,923.4 826.2,941.8 892.7,898.8 882.5,877.6 		"/>
	</g>
	<polygon class="st10" points="1059.8,633.8 1094.6,550.5 1122.4,565.7 	"/>
	<polygon class="st10" points="1063.3,664 1153.7,658.9 1148.3,627.6 	"/>
	<polygon class="st10" points="1086,635 1154.9,554.4 1182.3,584.5 	"/>
	<polygon class="st8" points="398.4,613.9 398.4,686.7 466.9,723.1 466.9,643.6 	"/>
	<polygon class="st14" points="398.4,613.9 398.4,686.7 466.9,723.1 466.9,643.6 	"/>
	<polygon class="st8" points="535.4,613.9 535.4,686.7 466.9,723.1 466.9,643.6 	"/>
	<polygon class="st11" points="535.4,613.9 535.4,686.7 466.9,723.1 466.9,643.6 	"/>
	<polygon class="st8" points="398.4,613.9 466.9,643.6 535.4,613.9 466.9,579.4 	"/>
	<polygon class="st10" points="497.8,630.3 497.8,675.7 501.3,669.8 503.3,673 505.6,667.9 508,671 508,626 	"/>
	<polygon class="st10" points="497.8,630.3 427.8,599 439.1,593.1 508,626 	"/>
</g>
<g id="Device">
	<path class="st8" d="M1504.4,1943.7h-126c0-8.6,16-16,38.7-19.2v-54h48.1v54C1488.4,1927.7,1504.4,1935.1,1504.4,1943.7z"/>
	<path class="st18" d="M1504.4,1943.7h-126c0-8.6,16-16,38.7-19.2v-54h48.1v54C1488.4,1927.7,1504.4,1935.1,1504.4,1943.7z"/>
	<rect x="1237.5" y="1666.2" class="st8" width="409" height="219.9"/>
	<rect x="1237.5" y="1666.2" class="st11" width="409" height="219.9"/>
	<rect x="1247.3" y="1676" class="st11" width="388.6" height="185.1"/>
	<rect x="1417.1" y="1886.2" class="st11" width="48.1" height="11.7"/>
	<polygon class="st2" points="1417.1,1736.3 1417.1,1816.1 1488.4,1776.2 	"/>
	<path class="st8" d="M1212.4,1635.3c-0.4,5.5-5.1,9.8-11,10.2h-71.6c-5.1,0-9-3.9-9.4-9c0-0.4,0-0.8,0-1.2l0.8-11h92L1212.4,1635.3
		z"/>
	<path class="st8" d="M1069.6,1648.2l-27.4,314.3c-1.6,14.9,9,28.6,24.3,30.1c1.2,0,2.3,0,3.5,0h130.7c17.2-0.4,31.3-13.3,32.9-30.1
		l27.4-314.3c1.6-14.9-9-28.6-24.3-30.1c-1.2,0-2.3,0-3.5,0h-130.7C1085.3,1618.1,1071.2,1631,1069.6,1648.2z"/>
	<g class="st22">
		<path d="M1212.4,1635.3c-0.4,5.5-5.1,9.8-11,10.2h-71.6c-5.1,0-9-3.9-9.4-9c0-0.4,0-0.8,0-1.2l0.8-11h92L1212.4,1635.3z"/>
		<path class="st8" d="M1069.6,1648.2l-27.4,314.3c-1.6,14.9,9,28.6,24.3,30.1c1.2,0,2.3,0,3.5,0h130.7
			c17.2-0.4,31.3-13.3,32.9-30.1l27.4-314.3c1.6-14.9-9-28.6-24.3-30.1c-1.2,0-2.3,0-3.5,0h-130.7
			C1085.3,1618.1,1071.2,1631,1069.6,1648.2z"/>
	</g>
	<path class="st8" d="M1093.9,1624.4h130.7c11.7,0,21.5,9.4,21.9,21.5c0,0.8,0,1.6,0,2.3l-27.4,314.3c-1.6,13.3-12.5,23.5-25.8,23.9
		h-130.7c-11.7,0-21.5-9.4-21.9-21.5c0-0.8,0-1.6,0-2.3l27.4-314.3C1069.2,1634.9,1080.6,1624.8,1093.9,1624.4z"/>
	<path class="st23" d="M1093.9,1624.4h130.7c11.7,0,21.5,9.4,21.9,21.5c0,0.8,0,1.6,0,2.3l-27.4,314.3
		c-1.6,13.3-12.5,23.5-25.8,23.9h-130.7c-11.7,0-21.5-9.4-21.9-21.5c0-0.8,0-1.6,0-2.3l27.4-314.3
		C1069.2,1634.9,1080.6,1624.8,1093.9,1624.4z"/>
	<path class="st2" d="M1061.4,1648.2l-27.4,314.3c-1.6,14.9,9.4,28.6,24.3,30.1c1.2,0,2.3,0,3.5,0h130.7
		c16.8-0.4,31.3-13.3,32.9-30.1l27.4-314.3c1.6-14.9-9-28.6-24.3-30.1c-1.2,0-2.3,0-3.5,0h-130.7
		C1077.4,1618.5,1063.3,1631.4,1061.4,1648.2z M1067.6,1648.2c1.2-13.3,12.5-23.9,25.8-23.9h130.7c11.7,0,21.5,9.4,21.9,21.5
		c0,0.8,0,1.6,0,2.3l-27.4,314.3c-1.6,13.3-12.5,23.5-25.8,23.9h-130.7c-11.7,0-21.5-9.4-21.9-21.5c0-0.8,0-1.6,0-2.3L1067.6,1648.2
		z"/>
	<path class="st2" d="M1205.4,1624.4L1205.4,1624.4c-1.2,9-8.6,16-18,16h-59.1c-8.2,0-14.9-6.3-15.3-14.5c0-0.4,0-1.2,0-1.6
		L1205.4,1624.4L1205.4,1624.4z"/>
	<path class="st8" d="M1141.2,1818.1l-25.4-5.1c4.7,23.1-8.2,48.5-19.2,65c-5.5,7.8-3.1,20,3.5,21.1l16.4,3.1
		C1136.5,1906.5,1141.2,1818.1,1141.2,1818.1z"/>
	<path class="st8" d="M1151,1820.1l-57.9-11.3c-18.8-3.9-31.3-21.9-27.4-41.1l0,0c3.9-18.8,21.9-31.3,41.1-27.4l57.9,11.3
		c18.8,3.9,31.3,21.9,27.4,41.1l0,0C1188.6,1811.4,1170.2,1824,1151,1820.1z"/>
	<path class="st13" d="M1151,1820.1l-57.9-11.3c-18.8-3.9-31.3-21.9-27.4-41.1l0,0c3.9-18.8,21.9-31.3,41.1-27.4l57.9,11.3
		c18.8,3.9,31.3,21.9,27.4,41.1l0,0C1188.6,1811.4,1170.2,1824,1151,1820.1z"/>
	<path class="st8" d="M992.9,1832.2l99-1.2c8.6,1.6,30.5-109.6,21.5-111.1l-91.2-38.7L992.9,1832.2z"/>
	<path class="st8" d="M1015.6,1758.2c-8.2,41.9-18.4,74.8-22.7,74s-1.2-35.2,7-77.1s18.4-74.8,22.7-74
		C1026.9,1681.9,1023.8,1716.3,1015.6,1758.2z"/>
	<path class="st13" d="M1015.6,1758.2c-8.2,41.9-18.4,74.8-22.7,74s-1.2-35.2,7-77.1s18.4-74.8,22.7-74
		C1026.9,1681.9,1023.8,1716.3,1015.6,1758.2z"/>
	<path class="st8" d="M990.9,1756.7c2-10.2,12.1-18,17.2-16.8c4.7,0.8,7,10.2,5.5,20.4c-2,10.2-7.4,17.6-12.5,16.8
		C996.4,1775.4,989,1766.4,990.9,1756.7z"/>
	<path class="st24" d="M1167,1845.5l-13.3-14.1c-8.2-8.6-18.8-14.5-30.5-16.8l-16-3.1c-3.1-0.8-6.3,1.6-7,4.7
		c-2,9.8-4.7,29.7,0.4,45.8c1.2,3.5,4.3,6.7,8.2,7.4l34.8,6.3c5.5,1.6,11.3,0.8,13.7-4.7L1167,1845.5z"/>
	<path class="st24" d="M1159.2,1880.3l59.9,79.1l5.9-68.1l-57.9-46.2C1167,1845.5,1141.6,1856.5,1159.2,1880.3z"/>
	<polygon class="st2" points="964.3,1739.8 895.4,1681.1 877.8,1707.3 	"/>
	<polygon class="st2" points="974.9,1768.4 891.9,1804.4 882.5,1774.3 	"/>
	<polygon class="st2" points="941.2,1752.3 843.4,1712 832.8,1751.2 	"/>
</g>
<g id="Target">
	<path class="st8" d="M1147.5,1008.4l-17.6,92.4h21.9l30.9-74C1183.1,1026.8,1180.7,1004.1,1147.5,1008.4z"/>
	<path class="st8" d="M1340.4,1008.4l17.6,92.4h-21.9l-30.9-74C1305.2,1026.8,1307.5,1004.1,1340.4,1008.4z"/>
	<path class="st13" d="M1147.5,1008.4l-17.6,92.4h21.9l30.9-74C1183.1,1026.8,1180.7,1004.1,1147.5,1008.4z"/>
	<path class="st13" d="M1340.4,1008.4l17.6,92.4h-21.9l-30.9-74C1305.2,1026.8,1307.5,1004.1,1340.4,1008.4z"/>
	<ellipse class="st8" cx="1244" cy="893.3" rx="165.2" ry="165.2"/>
	<circle class="st2" cx="1246.1" cy="893.3" r="127.6"/>
	<circle class="st8" cx="1243.8" cy="893.3" r="102.5"/>
	<circle class="st2" cx="1243.8" cy="893.3" r="79.4"/>
	<circle class="st8" cx="1243.8" cy="893.3" r="22.7"/>
	<polygon class="st8" points="1427.3,631.9 1427.3,673.7 1382.3,727.8 1382.3,727.8 1373.7,695.3 	"/>
	
		<rect x="1192.7" y="780.8" transform="matrix(0.6419 -0.7668 0.7668 0.6419 -122.8533 1304.8363)" class="st10" width="285.7" height="6.3"/>
	<polygon class="st8" points="1464.5,674.5 1419.9,727.8 1382.3,727.8 1427.3,673.7 	"/>
	<polygon class="st11" points="1464.5,674.5 1419.9,727.8 1382.3,727.8 1427.3,673.7 	"/>
</g>
<g id="Money">
	<path class="st8" d="M1468.8,913.7l-14.5-27c0,0,11-20,24.3-20.7s27,11,27,11l16.8-7l-12.5,47.7
		C1509.9,917.6,1486.8,936.4,1468.8,913.7z"/>
	<path class="st8" d="M1579.9,1014.6c0,60.7-38,85.3-85.3,85.3c-47,0-85.3-38-85.3-85.3c0-47,38-107.2,85.3-107.2
		C1495,907.4,1579.9,959.1,1579.9,1014.6z"/>
	<path class="st11" d="M1579.9,1014.6c0,60.7-38,85.3-85.3,85.3c-47,0-85.3-38-85.3-85.3c0-47,38-107.2,85.3-107.2
		C1495,907.4,1579.9,959.1,1579.9,1014.6z"/>
	<path class="st2" d="M1523.6,1024.4c0,12.1-9.8,20.4-25,21.5l-2,10.2h-9.4l2-10.2c-7.4-0.4-14.9-3.1-21.1-7l6.3-11.3
		c5.1,3.5,11,5.9,17.2,6.7l3.1-15.7c-8.6-2.7-18-5.9-18-17.2c0-12.1,10.2-20.4,25.8-21.5l2-10.2h9.4l-2,10.2
		c5.9,0.4,11.7,2.3,16.8,5.5l-5.5,11.3c-4.3-2.7-9-4.3-13.7-4.7l-3.1,16C1514.6,1010.7,1523.6,1013.8,1523.6,1024.4z M1497.4,1005.2
		l2.7-13.3c-5.5,1.2-8.2,3.9-8.2,7.4C1491.5,1002.9,1493.8,1004.1,1497.4,1005.2z M1508.7,1026.8c0-2.7-2-4.3-5.5-5.5l-2.3,12.5
		C1505.6,1032.6,1508.7,1030.3,1508.7,1026.8z"/>
</g>
</svg>
