<?xml version="1.0" encoding="utf-8"?>
<!-- Generator: Adobe Illustrator 26.0.0, SVG Export Plug-In . SVG Version: 6.00 Build 0)  -->
<svg version="1.1" id="Layer_1" xmlns="http://www.w3.org/2000/svg" xmlns:xlink="http://www.w3.org/1999/xlink" x="0px" y="0px"
	 viewBox="0 0 733.1 720.7" style="enable-background:new 0 0 733.1 720.7;" xml:space="preserve">
<style type="text/css">
	.st0{fill-rule:evenodd;clip-rule:evenodd;fill:#00A8DF;}
</style>
<path class="st0" d="M91.3,358.6c0-156.5,126.9-283.3,283.3-283.3S658,202.1,658,358.6c0,156.5-126.9,283.3-283.3,283.3
	c-55.7,0-107.6-16.1-151.4-43.8c-8.1-5.2-18.1-6.5-27.4-3.8l-96,28.6l36.1-84.6c4.3-10,3.4-21.4-2.3-30.7
	C106.9,464.5,91.3,413.4,91.3,358.6z M374.7,8.6c-193.3,0-350,156.7-350,350c0,61.3,15.8,118.9,43.5,169.1L10.7,662.2
	c-5.1,11.9-2.8,25.6,5.8,35.3c8.6,9.6,22,13.4,34.4,9.8l150-44.8c51.2,29.4,110.6,46.2,173.8,46.2c193.3,0,350-156.7,350-350
	C724.7,165.3,568,8.6,374.7,8.6z M451.1,431.4l-43.8,30.9c-20.5-11.7-43.2-28-66-50.8c-23.7-23.7-41.2-48.1-54.1-70.5l27.8-23.6
	c11.9-10.1,15.2-27.2,7.9-41.1l-35.5-66.7c-4.8-9-13.4-15.3-23.4-17.1c-10-1.8-20.3,1-28,7.7l-10.5,9.2
	c-25.3,22.1-40.2,58.3-27.9,95.1c12.9,38.1,40.3,98,96.5,154.2c60.5,60.5,121.9,84.3,157.8,93.5c28.9,7.4,56.3-2.5,75.6-18.3
	l19.7-16.1c8.4-6.9,13-17.4,12.2-28.3c-0.8-10.9-6.8-20.6-16.2-26.2L487.3,430C476,423.2,461.8,423.8,451.1,431.4z"/>
</svg>
