<svg id="Layer_1" data-name="Layer 1" xmlns="http://www.w3.org/2000/svg" xmlns:xlink="http://www.w3.org/1999/xlink" viewBox="0 0 111.08 107.88"><defs><style>.cls-1,.cls-3{fill:none;}.cls-1,.cls-2,.cls-3{stroke-miterlimit:10;}.cls-1{stroke-width:2.5px;stroke:url(#linear-gradient);}.cls-2{stroke-width:2px;fill:url(#New_Gradient_Swatch_1);stroke:url(#New_Gradient_Swatch_1-2);}.cls-3{stroke-width:3px;stroke:url(#New_Gradient_Swatch_1-3);}</style><linearGradient id="linear-gradient" x1="55.26" y1="-3.95" x2="55.26" y2="104.05" gradientTransform="matrix(1, 0, 0, -1, 0, 103.86)" gradientUnits="userSpaceOnUse"><stop offset="0" stop-color="#7d47d6"/><stop offset="0.24" stop-color="#0084d6"/><stop offset="0.49" stop-color="#0084d6"/><stop offset="0.79" stop-color="#00e4e7"/><stop offset="1" stop-color="#d7ffff"/></linearGradient><linearGradient id="New_Gradient_Swatch_1" x1="56.01" y1="81.45" x2="54.95" y2="18.99" gradientTransform="matrix(1, 0, 0, 1, 0, 0)" xlink:href="#linear-gradient"/><linearGradient id="New_Gradient_Swatch_1-2" x1="21.44" y1="53.94" x2="89.64" y2="53.94" gradientTransform="matrix(1, 0, 0, 1, 0, 0)" xlink:href="#linear-gradient"/><linearGradient id="New_Gradient_Swatch_1-3" x1="20.28" y1="53.94" x2="90.81" y2="53.94" gradientTransform="matrix(1, 0, 0, 1, 0, 0)" xlink:href="#linear-gradient"/></defs><path class="cls-1" d="M76.17,2H34.29A30.92,30.92,0,0,0,3.4,32.93V74.72a30.93,30.93,0,0,0,30.89,30.89H76.17a30.92,30.92,0,0,0,30.94-30.89V32.93A30.91,30.91,0,0,0,76.17,2Z"/><path class="cls-2" d="M53.15,57.36,27,83.29H23.87L51.69,55.76Zm31-32.78-26,25.74,1.47,1.6L87.21,24.58Z"/><path class="cls-3" d="M87.32,81.52H76L23.76,26.36h11.3Z"/></svg>