<svg id="Layer_1" data-name="Layer 1" xmlns="http://www.w3.org/2000/svg" xmlns:xlink="http://www.w3.org/1999/xlink" viewBox="0 0 115 109.28"><defs><style>.cls-1{fill:none;stroke-miterlimit:10;stroke-width:2.5px;stroke:url(#linear-gradient);}.cls-2{fill:url(#linear-gradient-2);}</style><linearGradient id="linear-gradient" x1="58.25" y1="-4.93" x2="58.25" y2="103.07" gradientTransform="matrix(1, 0, 0, -1, 0, 103.86)" gradientUnits="userSpaceOnUse"><stop offset="0" stop-color="#7d47d6"/><stop offset="0.24" stop-color="#0084d6"/><stop offset="0.49" stop-color="#0084d6"/><stop offset="0.79" stop-color="#00e4e7"/><stop offset="1" stop-color="#d7ffff"/></linearGradient><linearGradient id="linear-gradient-2" x1="58.26" y1="28.16" x2="58.26" y2="69.96" xlink:href="#linear-gradient"/></defs><path class="cls-1" d="M79.2,3H37.32A30.9,30.9,0,0,0,6.37,33.91V75.7a30.93,30.93,0,0,0,31,30.89H79.2A30.93,30.93,0,0,0,110.14,75.7V33.91A30.92,30.92,0,0,0,79.2,3Z"/><path class="cls-2" d="M81.53,33.91H35c-4,0-4.8,3.16-4.8,6.47V69.23c0,3.31.83,6.47,4.8,6.47H81.53c4,0,4.8-3.16,4.8-6.47V40.38C86.39,37.07,85.5,33.91,81.53,33.91ZM64.79,58,55.36,63.4a3.65,3.65,0,0,1-1.82.49,3.61,3.61,0,0,1-3.15-1.81,3.62,3.62,0,0,1-.49-1.82V49.34a3.54,3.54,0,0,1,.48-1.82,3.64,3.64,0,0,1,5-1.33l9.43,5.46a3.63,3.63,0,0,1,0,6.3Z"/></svg>