<svg xmlns="http://www.w3.org/2000/svg" viewBox="0 0 799.94 800"><defs><style>.cls-1{fill:#04a7df;}</style></defs><g id="Layer_2" data-name="Layer 2"><g id="Layer_1-2" data-name="Layer 1"><path class="cls-1" d="M789.52,293,293,789.52a2.87,2.87,0,0,1-.91.65,35.09,35.09,0,0,1-11,7.1,35.82,35.82,0,0,1-38.87-7.56l-65.43-65.36a13.33,13.33,0,0,1-3.77-8.14,14.06,14.06,0,0,1,1.95-8.46l.2-.33a57.9,57.9,0,0,0,8.07-18.68,61.23,61.23,0,0,0,1.43-20.38v-.07a61.72,61.72,0,0,0-5.47-19.59,59.17,59.17,0,0,0-11.65-16.54A59.72,59.72,0,0,0,131.45,615a60.82,60.82,0,0,0-20,1.37,59.63,59.63,0,0,0-18.3,7.81,12.85,12.85,0,0,1-8.92,2.6,13.44,13.44,0,0,1-8.59-3.9L10.48,557.68a36.22,36.22,0,0,1-7.75-11.59,35.92,35.92,0,0,1,0-27.47,35.2,35.2,0,0,1,7.56-11.39L507,10.48A35.72,35.72,0,0,1,532.36,0a35.7,35.7,0,0,1,13.73,2.73,34.76,34.76,0,0,1,11.59,7.75l65.69,65.69A13.09,13.09,0,0,1,627.08,84a13.69,13.69,0,0,1-1.69,8.4l-.13.2a58.54,58.54,0,0,0-7.42,18.16,60,60,0,0,0-1,19.86v.06a58.23,58.23,0,0,0,5.67,19,60.05,60.05,0,0,0,11.52,16.08v.07a58.81,58.81,0,0,0,15.88,11.52A60.09,60.09,0,0,0,688.48,182a58.29,58.29,0,0,0,18.16-7,14.43,14.43,0,0,1,8.92-2.21,12.86,12.86,0,0,1,8.2,3.84l65.69,65.69a35.83,35.83,0,0,1,10.49,25.32,35.84,35.84,0,0,1-10.29,25.13l-.13.26Zm-421,194c-1.24,8.21-4.75,15.95-12.31,23.51a3.31,3.31,0,0,1-4.62.06l-15.69-15.43a3.51,3.51,0,0,1-.91-1.76c-.72-4.55-1.24-8.46-1.69-11.65l-.46-3.58c-.84-.46-1.63-1-2.41-1.5a34.85,34.85,0,0,1-3.45-2.86l-.19-.2a22.23,22.23,0,0,1-2.61-3.06l-.13-.19a21.79,21.79,0,0,1-1.3-2l-4.23-.46c-2.93-.26-6.32-.65-9.83-1a2.82,2.82,0,0,1-1.89-1L289.84,448.7a3.28,3.28,0,0,1,0-4.56c8.47-8.46,16.15-12.24,24.22-13.48,7.42-1.1,14.91-.06,23.57,1.63l32-32-92.64-36a2.91,2.91,0,0,1-1.37-.78,3.26,3.26,0,0,1,0-4.56,183,183,0,0,0,14.84-16.8c10-12.63,11.4-14.39,36.27-8.66l14.91-14.91a3.27,3.27,0,0,1,4.55,0l15,15a3.28,3.28,0,0,1,0,4.56l-2.74,2.73,10.42,2.41,16.86-16.86a3.26,3.26,0,0,1,4.56,0l15,15a3.26,3.26,0,0,1,0,4.56l-4.68,4.69,15.23,3.51,36.85-36.85c3.45-3.45,8.33-4.68,13.41-4a24.91,24.91,0,0,1,13.74,7.1l.06.06A24.69,24.69,0,0,1,487,334.31c.72,5.08-.58,10-4,13.41l-36.85,36.85,3.52,15,4.62-4.62a3.26,3.26,0,0,1,4.56,0l15,15a3.26,3.26,0,0,1,0,4.56l-16.79,16.8,2.41,10.41,2.66-2.67a3.28,3.28,0,0,1,4.56,0l15,15a3.27,3.27,0,0,1,0,4.55l-14.85,14.85c5.6,24.93,3.26,26.69-8.92,35.87A157.53,157.53,0,0,0,440.76,524a4.14,4.14,0,0,1-1.11.72,3.25,3.25,0,0,1-4.17-1.82l-35.41-92.13-32.3,32.3c1.11,8.59,1.83,16.4.72,24ZM127.86,427.73,372.53,672.4,672.27,372.66,427.6,128,127.86,427.73ZM353.84,691,109.18,446.42,29.56,526A7.78,7.78,0,0,0,27.67,529a9.94,9.94,0,0,0-.72,3.58,9.31,9.31,0,0,0,.65,3.58,9.59,9.59,0,0,0,2,2.93l58.07,58.08a86.29,86.29,0,0,1,21.55-7.23,87.42,87.42,0,0,1,25-1.11,84,84,0,0,1,28.25,7.68,86.09,86.09,0,0,1,41,40.95A88.51,88.51,0,0,1,211.33,666,85.76,85.76,0,0,1,203,712.5l58.08,58.07a7.7,7.7,0,0,0,2.93,1.89,9.94,9.94,0,0,0,3.58.72,9.42,9.42,0,0,0,3.58-.72,9.68,9.68,0,0,0,2.93-2L353.84,691Zm92.45-581.71L691,354l79.75-79.75a2.52,2.52,0,0,1,1-.65,8.51,8.51,0,0,0,1.11-2,9.94,9.94,0,0,0,.72-3.58,8.66,8.66,0,0,0-.65-3.45l-.07-.13a8.61,8.61,0,0,0-1.82-2.8L712.24,202.8a86.9,86.9,0,0,1-45.9,7,86.51,86.51,0,0,1-67.58-48.05,87.34,87.34,0,0,1-7.55-52,89.3,89.3,0,0,1,6.45-21.42L539,29.62a9.34,9.34,0,0,0-2.8-1.89l-.13-.06a9.94,9.94,0,0,0-3.58-.72,9.27,9.27,0,0,0-3.58.65,9.48,9.48,0,0,0-2.93,2l-79.69,79.75Z"/></g></g></svg>